<svg width="464" height="165" viewBox="0 0 464 165" fill="none" xmlns="http://www.w3.org/2000/svg">
<defs>
<linearGradient id="paint0_linear_902_8449" x1="391.957" y1="44.834" x2="419.408" y2="2.2606" gradientUnits="userSpaceOnUse">
<stop stop-color="#CDDBDD"/>
<stop offset="1" stop-color="#BDD6E1"/>
</linearGradient>
<linearGradient id="paint1_linear_902_8449" x1="341.55" y1="87.8466" x2="407.505" y2="35.7239" gradientUnits="userSpaceOnUse">
<stop stop-color="#0BA69B"/>
<stop offset="1" stop-color="#BED6DB"/>
</linearGradient>
<linearGradient id="paint2_linear_902_8449" x1="407.531" y1="47.9994" x2="449.36" y2="-12.6087" gradientUnits="userSpaceOnUse">
<stop stop-color="#B3D4D1"/>
<stop offset="1" stop-color="#A6CFD0"/>
</linearGradient>
<linearGradient id="paint3_linear_902_8449" x1="44256.4" y1="97037.9" x2="54569.3" y2="86484.1" gradientUnits="userSpaceOnUse">
<stop stop-color="#0BA69B"/>
<stop offset="1" stop-color="#BED6DB"/>
</linearGradient>
<linearGradient id="paint4_linear_902_8449" x1="176.59" y1="96.252" x2="288.723" y2="7.59415" gradientUnits="userSpaceOnUse">
<stop stop-color="#FEFEFE"/>
<stop offset="1" stop-color="#F1F9FD"/>
</linearGradient>
<linearGradient id="paint5_linear_902_8449" x1="-16.6985" y1="66.6063" x2="107.803" y2="-18.0615" gradientUnits="userSpaceOnUse">
<stop stop-color="#E2F1F2"/>
<stop offset="1" stop-color="#E2F1F2"/>
</linearGradient>
<linearGradient id="paint6_linear_902_8449" x1="-2.17466" y1="156.98" x2="52.2223" y2="98.8588" gradientUnits="userSpaceOnUse">
<stop stop-color="#277F83"/>
<stop offset="1" stop-color="#3E838A"/>
</linearGradient>
<linearGradient id="paint7_linear_902_8449" x1="3.02541" y1="153.256" x2="72.7573" y2="98.0875" gradientUnits="userSpaceOnUse">
<stop stop-color="#097F7D"/>
<stop offset="1" stop-color="#098A7E"/>
</linearGradient>
<linearGradient id="paint8_linear_902_8449" x1="276.939" y1="77.9776" x2="353.081" y2="9.84167" gradientUnits="userSpaceOnUse">
<stop stop-color="#FEFEFE"/>
<stop offset="1" stop-color="#E2F1F2"/>
</linearGradient>
<linearGradient id="paint9_linear_902_8449" x1="26085.8" y1="73802.5" x2="30500.9" y2="70798.6" gradientUnits="userSpaceOnUse">
<stop stop-color="#E2F1F2"/>
<stop offset="1" stop-color="#E2F1F2"/>
</linearGradient>
<linearGradient id="paint10_linear_902_8449" x1="357.045" y1="43.9296" x2="394.897" y2="-10.1216" gradientUnits="userSpaceOnUse">
<stop stop-color="#D3EAEA"/>
<stop offset="1" stop-color="#E2F1F2"/>
</linearGradient>
<linearGradient id="paint11_linear_902_8449" x1="149.764" y1="163.364" x2="197.591" y2="116.561" gradientUnits="userSpaceOnUse">
<stop stop-color="#89C7CF"/>
<stop offset="1" stop-color="#4AA6AF"/>
</linearGradient>
<linearGradient id="paint12_linear_902_8449" x1="330.365" y1="156.7" x2="422.015" y2="59.2778" gradientUnits="userSpaceOnUse">
<stop stop-color="#0BA69B"/>
<stop offset="1" stop-color="#098A7E"/>
</linearGradient>
<linearGradient id="paint13_linear_902_8449" x1="238.236" y1="194.951" x2="360.21" y2="65.9279" gradientUnits="userSpaceOnUse">
<stop stop-color="#D5E6E7"/>
<stop offset="1" stop-color="#A6CFD0"/>
</linearGradient>
<linearGradient id="paint14_linear_902_8449" x1="20683.4" y1="101860" x2="30162.9" y2="93101.6" gradientUnits="userSpaceOnUse">
<stop stop-color="#B3D4D1"/>
<stop offset="1" stop-color="#A6CFD0"/>
</linearGradient>
<linearGradient id="paint15_linear_902_8449" x1="23.7069" y1="108.688" x2="126.782" y2="27.1986" gradientUnits="userSpaceOnUse">
<stop stop-color="#CDDBDD"/>
<stop offset="1" stop-color="#E2F1F2"/>
</linearGradient>
<linearGradient id="paint16_linear_902_8449" x1="69.7378" y1="159.627" x2="158.276" y2="82.9922" gradientUnits="userSpaceOnUse">
<stop stop-color="#3E838A"/>
<stop offset="1" stop-color="#89C7CF"/>
</linearGradient>
<linearGradient id="paint17_linear_902_8449" x1="29792.6" y1="47223.6" x2="33218.2" y2="41518.7" gradientUnits="userSpaceOnUse">
<stop stop-color="#FEFEFE"/>
<stop offset="1" stop-color="#F1F9FD"/>
</linearGradient>
<linearGradient id="paint18_linear_902_8449" x1="10732.1" y1="100504" x2="14631.1" y2="99040.3" gradientUnits="userSpaceOnUse">
<stop stop-color="#0BA69B"/>
<stop offset="1" stop-color="#BED6DB"/>
</linearGradient>
<linearGradient id="paint19_linear_902_8449" x1="118.469" y1="126.496" x2="205.877" y2="57.363" gradientUnits="userSpaceOnUse">
<stop stop-color="#BDD6E1"/>
<stop offset="1" stop-color="#D2E2E5"/>
</linearGradient>
<linearGradient id="paint20_linear_902_8449" x1="122.738" y1="123.118" x2="248.503" y2="23.6475" gradientUnits="userSpaceOnUse">
<stop stop-color="#E2F1F2"/>
<stop offset="1" stop-color="#F4FAFE"/>
</linearGradient>
<linearGradient id="paint21_linear_902_8449" x1="31639.2" y1="108892" x2="38643.3" y2="105400" gradientUnits="userSpaceOnUse">
<stop stop-color="#097F7D"/>
<stop offset="1" stop-color="#098A7E"/>
</linearGradient>
<linearGradient id="paint22_linear_902_8449" x1="402.517" y1="102.716" x2="484.512" y2="37.878" gradientUnits="userSpaceOnUse">
<stop stop-color="#73A9B1"/>
<stop offset="1" stop-color="#3E838A"/>
</linearGradient>
<linearGradient id="paint23_linear_902_8449" x1="24474.8" y1="37302.1" x2="25442.3" y2="34698.3" gradientUnits="userSpaceOnUse">
<stop stop-color="#0BA69B"/>
<stop offset="1" stop-color="#098A7E"/>
</linearGradient>
<linearGradient id="paint24_linear_902_8449" x1="226.638" y1="183.008" x2="272.417" y2="101.466" gradientUnits="userSpaceOnUse">
<stop stop-color="#018C95"/>
<stop offset="1" stop-color="#097F7D"/>
</linearGradient>
<clipPath id="clip0_902_8449">
<rect width="463.73" height="164.2" fill="white"/>
</clipPath>
</defs>
<g clip-path="url(#clip0_902_8449)">
<path fill-rule="evenodd" clip-rule="evenodd" d="M410.6 50.98L399.01 42.47L405.15 0H412.44L410.6 50.98Z" fill="url(#paint0_linear_902_8449)"/>
<path fill-rule="evenodd" clip-rule="evenodd" d="M410.6 50.9804L337.34 81.8604L399.05 42.4404L410.6 50.9804Z" fill="url(#paint1_linear_902_8449)"/>
<path fill-rule="evenodd" clip-rule="evenodd" d="M463.74 18V0H412.48L410.64 51L463.74 18Z" fill="url(#paint2_linear_902_8449)"/>
<path fill-rule="evenodd" clip-rule="evenodd" d="M337.34 81.8602L205.34 126.66L281.1 24.6602L337.34 81.8602Z" fill="url(#paint3_linear_902_8449)"/>
<path fill-rule="evenodd" clip-rule="evenodd" d="M281.1 24.6802L205.34 126.68L232.23 6.91016L281.1 24.6802Z" fill="url(#paint4_linear_902_8449)"/>
<path fill-rule="evenodd" clip-rule="evenodd" d="M0 3.7002V65.8602L12.25 93.5102L121.6 30.8602L0 3.7002Z" fill="url(#paint5_linear_902_8449)"/>
<path fill-rule="evenodd" clip-rule="evenodd" d="M3.24023 164.2L12.2402 93.4702L43.3002 164.2H3.24023Z" fill="url(#paint6_linear_902_8449)"/>
<path fill-rule="evenodd" clip-rule="evenodd" d="M43.31 164.2L12.25 93.4702L64.9 164.2H43.31Z" fill="url(#paint7_linear_902_8449)"/>
<path fill-rule="evenodd" clip-rule="evenodd" d="M341.06 0L337.34 81.86L281.1 24.68L322.21 0H341.06Z" fill="url(#paint8_linear_902_8449)"/>
<path fill-rule="evenodd" clip-rule="evenodd" d="M399.05 42.4702L337.34 81.8602L341.06 -0.0297852H353.95L399.05 42.4702Z" fill="url(#paint9_linear_902_8449)"/>
<path fill-rule="evenodd" clip-rule="evenodd" d="M399.05 42.47L353.95 0H405.19L399.05 42.47Z" fill="url(#paint10_linear_902_8449)"/>
<path fill-rule="evenodd" clip-rule="evenodd" d="M148.54 164.2L167.47 136.73L205.34 126.73L159.47 164.24L148.54 164.2Z" fill="url(#paint11_linear_902_8449)"/>
<path fill-rule="evenodd" clip-rule="evenodd" d="M373.41 164.2H395.65L410.65 50.98L337.34 81.86L373.41 164.2Z" fill="url(#paint12_linear_902_8449)"/>
<path fill-rule="evenodd" clip-rule="evenodd" d="M296.14 164.2L205.34 126.69L337.34 81.8901L373.41 164.2H296.14Z" fill="url(#paint13_linear_902_8449)"/>
<path fill-rule="evenodd" clip-rule="evenodd" d="M64.9 164.2L12.25 93.4702L125.89 59.4702L74.89 164.21L64.9 164.2Z" fill="url(#paint14_linear_902_8449)"/>
<path fill-rule="evenodd" clip-rule="evenodd" d="M125.89 59.4604L12.25 93.4604L121.6 30.8604L125.89 59.4604Z" fill="url(#paint15_linear_902_8449)"/>
<path fill-rule="evenodd" clip-rule="evenodd" d="M74.8496 164.2L125.85 59.4604L133.01 164.2H74.8496Z" fill="url(#paint16_linear_902_8449)"/>
<path fill-rule="evenodd" clip-rule="evenodd" d="M232.23 6.92041L125.89 59.4604L121.6 30.8604L232.23 6.92041Z" fill="url(#paint17_linear_902_8449)"/>
<path fill-rule="evenodd" clip-rule="evenodd" d="M133.05 164.2L125.89 59.4604L167.47 136.73L148.54 164.2H133.05Z" fill="url(#paint18_linear_902_8449)"/>
<path fill-rule="evenodd" clip-rule="evenodd" d="M205.34 126.69L167.47 136.69L125.89 59.4604L205.34 126.69Z" fill="url(#paint19_linear_902_8449)"/>
<path fill-rule="evenodd" clip-rule="evenodd" d="M205.34 126.69L125.89 59.4604L232.23 6.92041L205.34 126.69Z" fill="url(#paint20_linear_902_8449)"/>
<path fill-rule="evenodd" clip-rule="evenodd" d="M463.74 136.48V108.35L410.6 50.98L395.6 164.2H433.25L463.74 136.48Z" fill="url(#paint21_linear_902_8449)"/>
<path fill-rule="evenodd" clip-rule="evenodd" d="M463.74 108.35V18L410.64 51L463.74 108.35Z" fill="url(#paint22_linear_902_8449)"/>
<path fill-rule="evenodd" clip-rule="evenodd" d="M159.47 164.2L205.34 126.69L237.13 164.2H159.47Z" fill="url(#paint23_linear_902_8449)"/>
<path fill-rule="evenodd" clip-rule="evenodd" d="M237.13 164.2L205.34 126.69L296.14 164.2H237.13Z" fill="url(#paint24_linear_902_8449)"/>
</g>
</svg>
