<svg width="169" height="170" viewBox="0 0 169 170" fill="none" xmlns="http://www.w3.org/2000/svg">
<g clip-path="url(#clip0_927_9774)">
<path d="M70.5823 80.8806L60.2219 85.0061L62.7491 84.8734L66.5459 88.5887L67.8994 88.4078L70.5823 80.8806Z" fill="#3AB09B"/>
<path d="M70.5823 80.8806L74.8582 88.9023L90.3568 94.1496H90.5125L93.2553 85.1146L70.5823 80.8806Z" fill="#2E8B90"/>
<path d="M74.8582 88.9023L70.5823 80.8806L67.8994 88.3716L71.8519 87.8529L74.8582 88.9023Z" fill="#277B76"/>
<path d="M136.386 95.5367L142.255 75.2593L109.545 87.0687L114.108 88.1785L114.24 92.5693L119.39 94.6923L126.073 91.0735L128.337 93.6067L136.278 95.4282H136.338L136.386 95.5367Z" fill="#206C5E"/>
<path d="M142.255 75.2593L150.184 89.1797L150.004 86.9842L153.166 80.0602L152.675 78.7092L142.255 75.2593Z" fill="#3AB09B"/>
<path d="M136.386 95.5367L142.255 75.2593L150.184 89.1797L151.381 103.245L146.95 109.011L140.686 102.051L139.153 94.4028L136.386 95.5367Z" fill="#2E8B90"/>
<path d="M19.3912 62.5212L31.0691 82.5936L12.66 80.4344L12.0731 85.5369L9.19853 84.9941L5.90476 83.9567L4.70703 78.046L6.35991 72.5574L14.205 72.3765L18.6845 62.8228L19.2834 62.5815L19.3912 62.5212Z" fill="#3AB09B"/>
<path d="M19.3914 62.521L31.0692 82.5934L35.2733 83.088H35.6206L43.4298 79.6019L47.9932 68.2146L44.7833 69.4209L39.7408 76.6585V69.5536L45.2384 64.0168L23.0684 58.8901L24.4458 60.4342L19.3914 62.521Z" fill="#206C5E"/>
<path d="M43.4297 79.6381L47.993 68.2508L51.8258 66.8516L70.5823 80.8805L60.2219 85.0059L56.8084 85.1748L50.6281 76.4414L43.4297 79.6381Z" fill="#277B76"/>
<path d="M70.5823 80.8805L85.2904 54.6923L91.0515 52.6055L105.424 84.065L93.8781 83.281L93.3033 85.1628L70.5823 80.8805Z" fill="#277B76"/>
<path d="M51.8259 66.8515L70.5824 80.8805L85.2906 54.6923H85.1947L87.5902 47.8889L81.5177 51.2665L81.6375 51.3268L83.458 52.2194V53.4257L84.7396 54.8612L51.8259 66.8515Z" fill="#3AB09B"/>
<path d="M91.0515 52.6056L105.424 84.0652L108.047 86.6948L125.582 57.3462L97.3516 50.2292L97.1719 50.3619L91.0515 52.5815V52.6056Z" fill="#2E8B90"/>
<path d="M108.047 86.707L125.582 57.3584L142.255 75.2595L109.545 87.0689L108.047 86.707Z" fill="#277B76"/>
<path d="M142.255 75.2593L150.004 71.3872L152.675 78.7093L142.255 75.2593Z" fill="#277B76"/>
<path d="M125.582 57.3584L142.255 75.2595L150.004 71.3874L145.596 59.2643L125.582 57.3584Z" fill="#3AB09B"/>
<path d="M13.3308 53.7636L15.8101 57.9253L32.9736 34.8734L27.7755 34.4994L21.6551 40.7841L21.5593 40.8686L24.7452 45.6936L19.9543 47.5151L17.5588 51.2666L13.5464 51.4838L13.3308 53.7636ZM34.6505 32.6177L42.5196 21.9421L42.8429 20.2896L30.5901 30.2413L32.6263 33.2691L34.6505 32.6177Z" fill="#3AB09B"/>
<path d="M15.81 57.9253L13.3307 53.7637L13.0073 58.5043L15.81 57.9253Z" fill="#277B76"/>
<path d="M34.6504 32.6056L42.5195 21.9421L44.364 33.6309L36.9141 31.8698L34.6504 32.6056Z" fill="#277B76"/>
<path d="M15.8101 57.9252L32.9736 34.8733L34.1713 36.3208L39.7767 35.1146H44.5676L44.6993 35.9831L43.5016 41.7008L44.6993 52.0627L47.6458 54.7647L48.568 60.5428L45.2383 64.0168L23.0683 58.8902L21.2238 56.8395L17.4509 57.5874L15.8101 57.9252Z" fill="#277B76"/>
<path d="M71.2532 27.6718V28.5886H72.1874V27.6718C72.1874 27.6101 72.1753 27.5489 72.1518 27.4918C72.1284 27.4348 72.094 27.3829 72.0506 27.3392C72.0072 27.2955 71.9557 27.2608 71.899 27.2372C71.8424 27.2136 71.7816 27.2014 71.7203 27.2014C71.6589 27.2014 71.5982 27.2136 71.5415 27.2372C71.4849 27.2608 71.4334 27.2955 71.39 27.3392C71.3466 27.3829 71.3122 27.4348 71.2887 27.4918C71.2653 27.5489 71.2532 27.6101 71.2532 27.6718Z" fill="#206C5E"/>
<path d="M72.319 32.883C72.148 32.7188 71.9204 32.6279 71.6842 32.6297C71.5519 32.6323 71.4216 32.6625 71.3015 32.7184C71.1813 32.7743 71.074 32.8547 70.9862 32.9544C70.8985 33.0541 70.8322 33.171 70.7915 33.2978C70.7509 33.4247 70.7367 33.5586 70.7499 33.6912V35.0784V37.8407H72.6184V33.7153C72.6253 33.5672 72.6023 33.4192 72.5508 33.2803C72.4993 33.1414 72.4205 33.0144 72.319 32.9071" fill="#206C5E"/>
<path d="M47.6936 54.801L48.6039 60.579L51.191 57.9856L47.6936 54.801Z" fill="#2E8B90"/>
<path d="M42.5195 21.9421L44.364 33.6309L50.173 35.0061L46.2564 41.9301V41.9904L52.3649 56.6707L55.7425 56.0314L63.0366 42.0748V41.5923L63.3361 41.4838L66.7975 40.2775V31.0254L66.9293 30.8324L67.4443 31.0013L69.4326 24.5718L42.5195 21.9421Z" fill="#2E8B90"/>
<path d="M75.9842 29.2641L76.3555 30.5548L76.8944 30.4945L76.9663 30.6875L77.2897 31.4595L87.5662 47.8769L103.197 29.3848L101.041 25.7659L103.819 21.2183L74.7625 24.9577L75.9842 29.2641Z" fill="#2E8B90"/>
<path d="M64.4021 49.6744V50.9772H65.3723V49.6985C65.3723 49.216 65.1207 48.9868 64.8932 48.9868C64.6656 48.9868 64.4021 49.216 64.4021 49.6985" fill="#206C5E"/>
<path d="M76.7507 49.6744V50.9772H77.7209V49.6985C77.7209 49.216 77.4694 48.9868 77.2418 48.9868C77.0142 48.9868 76.7507 49.216 76.7507 49.6985" fill="#206C5E"/>
<path d="M67.7317 45.9229C67.7293 46.515 67.9015 47.0946 68.2265 47.5881C68.5514 48.0817 69.0145 48.467 69.557 48.6953C70.0996 48.9236 70.6972 48.9845 71.2742 48.8705C71.8512 48.7564 72.3816 48.4725 72.7982 48.0546C73.2148 47.6367 73.4989 47.1036 73.6145 46.523C73.7301 45.9424 73.6719 45.3402 73.4475 44.7929C73.223 44.2456 72.8423 43.7776 72.3536 43.4484C71.8649 43.1191 71.2901 42.9434 70.7021 42.9434C69.9164 42.9434 69.1626 43.2569 68.6059 43.8153C68.0492 44.3737 67.7349 45.1315 67.7317 45.9229ZM68.7977 45.9229C68.7953 45.543 68.905 45.171 69.1128 44.854C69.3206 44.537 69.6172 44.2893 69.965 44.1423C70.3127 43.9953 70.696 43.9556 71.0662 44.0282C71.4364 44.1009 71.7769 44.2826 72.0444 44.5503C72.3119 44.818 72.4945 45.1598 72.569 45.5322C72.6434 45.9045 72.6064 46.2908 72.4626 46.642C72.3188 46.9931 72.0748 47.2934 71.7613 47.5047C71.4479 47.716 71.0793 47.8288 70.7021 47.8288C70.1991 47.8288 69.7165 47.6283 69.3597 47.2713C69.0029 46.9142 68.8009 46.4294 68.7977 45.9229Z" fill="#206C5E"/>
<path d="M74.6067 33.9686V37.9855L76.02 38.4439V34.2461C76.02 33.5102 75.6128 33.0398 75.2175 33.0398C74.8223 33.0398 74.6067 33.269 74.6067 33.9324" fill="#206C5E"/>
<path d="M87.5661 47.9252L81.4936 51.3028L80.8708 50.9891V43.4379L80.1042 41.3752L77.2896 40.5066V40.3739V31.5078L87.5661 47.9252Z" fill="#206C5E"/>
<path d="M68.9774 38.0458V34.0893C68.9774 33.4258 68.6899 33.1846 68.4264 33.1846C68.1629 33.1846 67.7078 33.6309 67.7078 34.3908V38.3595L68.5102 38.1665L68.9774 38.0458Z" fill="#206C5E"/>
<path d="M55.7065 56.0313L63.0007 42.0747V51.2786L61.3718 51.9179V54.9577H61.252L55.7065 56.0313Z" fill="#206C5E"/>
<path d="M116.719 38.2026L125.582 57.3583L97.3516 50.2413L109.461 40.7479L116.719 38.2026Z" fill="#3AB09B"/>
<path d="M87.5662 47.9252L103.197 29.4331L104.023 26.6827L108.227 26.3691L109.173 29.228L111.88 27.7443L116.312 37.31L111.353 37.696L104.682 41.6526L102.023 39.8191L100.082 40.8565L98.3458 46.2365L87.5662 47.9252Z" fill="#3AB09B"/>
<path d="M111.88 27.7444L116.312 37.3101L118.611 37.1292L120.156 32.6177L123.989 28.9989L125.522 28.4078L118.791 25.1509L115.593 29.3969L113.413 26.8517L111.88 27.7444ZM116.671 38.2028L125.534 57.3584L141.201 35.9711L139.296 35.0544L137.116 35.8385L133.02 32.4971L116.671 38.2028Z" fill="#277B76"/>
<path d="M141.249 35.971L157.178 49.8311L164.233 37.9493L157.622 28.4077L141.249 35.971Z" fill="#277B76"/>
<path d="M125.582 57.3582L141.249 35.9709L157.178 49.831L152.292 58.0578H152.22L145.56 59.2641L125.582 57.3582Z" fill="#206C5E"/>
<path d="M42.5195 21.942L42.8429 20.2894L60.9047 5.60913L70.1871 22.0265L69.3966 24.5717L42.5195 21.942Z" fill="#277B76"/>
<path d="M73.7922 21.5319L77.3854 0.0722618L77.5531 0.0119629L77.6849 0.253232L84.5598 13.1362L88.68 12.7261L96.633 21.4233L104.849 19.5656L103.831 21.2424L74.7744 24.9818L73.8042 21.5439L73.7922 21.5319Z" fill="#277B76"/>
<path d="M60.9045 5.60914L70.187 22.0265L71.9237 16.4294V15.5006L72.0914 15.2834V12.5452L71.5165 12.9674L71.756 12.2436L71.1452 11.7973H71.8998L72.1273 11.0856L72.3549 11.7973H73.1094L72.4986 12.2436L72.7381 12.9674L72.1633 12.5452V15.199L72.3669 15.5006V16.4656L73.7922 21.4957L77.3854 0.0361328L62.3179 4.46317L60.9525 5.57292L60.9045 5.60914Z" fill="#3AB09B"/>
<path d="M130.385 20.4221L137.08 29.9999L130.277 26.55L125.486 28.3715L118.755 25.1145L120.743 22.4728H126.025L126.121 22.6175L127.726 24.8491L130.385 20.4221Z" fill="#3AB09B"/>
<path d="M141.249 35.971L139.344 35.0543L157.622 28.4077L141.249 35.971Z" fill="#2E8B90"/>
<path d="M130.385 20.4222L137.08 30L138.961 30.953H139.045L145.309 25.5247L143.249 20.9892L139.656 16.8999L139.596 16.8396L137.739 17.2376L137.068 7.28589L138.961 3.66708L135.188 3.51025L126.732 13.1604L126.924 13.3414L131.798 18.0217L130.385 20.4222Z" fill="#206C5E"/>
<path d="M145.309 25.573L143.249 21.0374L144.447 18.2148L147.177 14.5959V23.9687L145.309 25.573Z" fill="#2E8B90"/>
<path fill-rule="evenodd" clip-rule="evenodd" d="M66.7974 40.3137L63.3359 41.5199L66.7974 34.8613V40.3137Z" fill="#206C5E"/>
<path fill-rule="evenodd" clip-rule="evenodd" d="M4.13211 124.355C4.16613 124.381 4.19464 124.414 4.21596 124.451C4.384 124.672 4.52102 124.916 4.62319 125.175L6.35991 129.095H4.85076L3.31766 125.549C3.2369 125.341 3.11462 125.152 2.95836 124.994C2.74775 124.9 2.5176 124.858 2.28763 124.873H1.40128V129.095H0.0358887V119.445H2.62299C3.33616 119.405 4.04385 119.591 4.64713 119.976C5.03911 120.262 5.33564 120.662 5.49754 121.122C5.59777 121.463 5.65019 121.816 5.65325 122.171C5.66089 122.576 5.56181 122.976 5.36614 123.33C5.17047 123.684 4.88519 123.979 4.53934 124.186C4.42199 124.262 4.29766 124.327 4.16804 124.379L4.13211 124.355ZM9.66563 119.421V125.766C9.6544 126.188 9.75794 126.605 9.96506 126.972C10.1596 127.282 10.4381 127.529 10.7676 127.684C11.1155 127.835 11.4905 127.913 11.8695 127.913C12.2485 127.913 12.6235 127.835 12.9714 127.684C13.2996 127.532 13.5749 127.284 13.7619 126.972C13.978 126.608 14.086 126.19 14.0733 125.766V119.433H15.4507V125.766C15.4687 126.418 15.3026 127.063 14.9716 127.624C14.6643 128.147 14.21 128.567 13.6661 128.83C13.1007 129.084 12.4886 129.215 11.8695 129.215C11.2504 129.215 10.6382 129.084 10.0729 128.83C9.52686 128.57 9.07172 128.149 8.76733 127.624C8.43638 127.063 8.27026 126.418 8.28824 125.766V119.397L9.66563 119.421ZM17.3671 128.709L17.5108 127.298L17.8462 127.455C18.4395 127.749 19.0894 127.91 19.7505 127.925C20.0558 127.926 20.3591 127.877 20.6488 127.78C20.9163 127.692 21.1559 127.534 21.3435 127.322C21.5161 127.122 21.6061 126.863 21.5951 126.598C21.6014 126.323 21.5308 126.051 21.3914 125.814C21.2415 125.591 21.0504 125.398 20.8285 125.247C20.4572 125.006 20.062 124.801 19.6308 124.596C19.2609 124.406 18.9011 124.196 18.5528 123.969C18.2383 123.76 17.9693 123.489 17.7623 123.172C17.5135 122.781 17.3883 122.322 17.403 121.858C17.398 121.412 17.5051 120.972 17.7144 120.579C17.9525 120.173 18.3075 119.849 18.7325 119.65C19.2769 119.416 19.8656 119.305 20.4572 119.324C21.1578 119.321 21.854 119.435 22.5173 119.662L22.7209 119.723L22.5293 121.098L22.2179 120.953C21.6633 120.707 21.063 120.584 20.4572 120.591C20.004 120.548 19.551 120.677 19.1876 120.953C19.0707 121.071 18.9795 121.213 18.9197 121.369C18.8599 121.524 18.8328 121.691 18.8403 121.858C18.8363 122.067 18.8947 122.273 19.008 122.449C19.1343 122.63 19.2976 122.782 19.487 122.895C19.8344 123.124 20.2296 123.329 20.6009 123.534C21.0541 123.778 21.4903 124.052 21.9065 124.355C22.2554 124.619 22.5356 124.964 22.7234 125.361C22.9111 125.758 23.0006 126.195 22.9844 126.634C22.9764 127.062 22.8521 127.479 22.6251 127.841C22.3567 128.259 21.9741 128.59 21.5232 128.794C20.9486 129.041 20.3275 129.161 19.7026 129.144C18.9483 129.142 18.2008 128.999 17.4988 128.721L17.3671 128.709ZM24.3019 128.709L24.4457 127.298L24.769 127.455C25.3672 127.747 26.0206 127.908 26.6854 127.925C26.9907 127.926 27.294 127.877 27.5837 127.78C27.8479 127.692 28.0836 127.534 28.2664 127.322C28.439 127.122 28.529 126.863 28.518 126.598C28.5306 126.322 28.4596 126.049 28.3143 125.814C28.1686 125.591 27.9815 125.399 27.7634 125.247C27.3921 125.006 26.9968 124.801 26.5656 124.596C26.1944 124.408 25.8344 124.199 25.4877 123.969C25.1731 123.76 24.9042 123.489 24.6972 123.172C24.4484 122.781 24.3231 122.322 24.3378 121.858C24.3346 121.413 24.4373 120.975 24.6373 120.579C24.8793 120.176 25.2332 119.853 25.6554 119.65C26.204 119.416 26.7966 119.305 27.3921 119.324C28.0926 119.322 28.7887 119.436 29.4522 119.662L29.6558 119.723L29.4522 121.098L29.1408 120.953C28.5908 120.706 27.9941 120.583 27.3921 120.591C26.9353 120.549 26.4791 120.678 26.1105 120.953C25.8878 121.2 25.7677 121.524 25.7751 121.858C25.7656 122.068 25.8245 122.275 25.9428 122.449C26.0712 122.624 26.2293 122.775 26.4099 122.895C26.7693 123.124 27.1645 123.329 27.5358 123.534C27.989 123.778 28.4251 124.052 28.8413 124.355C29.1655 124.603 29.4314 124.92 29.6199 125.283C29.8221 125.704 29.9207 126.167 29.9073 126.634C29.8993 127.06 29.7795 127.477 29.56 127.841C29.29 128.262 28.9025 128.593 28.4461 128.794C27.876 129.042 27.2585 129.162 26.6375 129.144C25.8832 129.142 25.1357 128.999 24.4337 128.721L24.3019 128.709ZM31.8955 119.421H33.261V129.071H31.8836L31.8955 119.421ZM41.4175 126.574H37.1177L36.1116 129.095H34.6264L38.4471 119.445H39.9084L43.9567 129.095H42.4715L41.4175 126.574ZM49.9813 123.546H58.4972V124.753H50.0292L49.9813 123.546ZM65.7554 119.421H67.1208V129.071H65.7554V119.421ZM69.0372 128.709L69.1929 127.298L69.5163 127.455C70.1144 127.747 70.7679 127.908 71.4327 127.925C71.7379 127.926 72.0413 127.877 72.331 127.78C72.5951 127.692 72.8309 127.534 73.0137 127.322C73.1862 127.122 73.2762 126.863 73.2652 126.598C73.2778 126.322 73.2068 126.049 73.0616 125.814C72.9159 125.591 72.7288 125.399 72.5106 125.247C72.1393 125.006 71.7441 124.801 71.3129 124.596C70.8817 124.391 70.5823 124.198 70.2349 123.969C69.9239 123.76 69.6588 123.489 69.4564 123.172C69.2041 122.782 69.0747 122.324 69.0851 121.858C69.0801 121.412 69.1873 120.972 69.3966 120.579C69.6386 120.176 69.9925 119.853 70.4146 119.65C70.9629 119.415 71.5557 119.304 72.1513 119.324C72.8518 119.322 73.5479 119.436 74.2114 119.662L74.415 119.723L74.2114 121.098L73.9839 120.941C73.4339 120.694 72.8372 120.571 72.2352 120.579C71.7783 120.536 71.3217 120.665 70.9536 120.941C70.8367 121.059 70.7455 121.201 70.6857 121.357C70.6259 121.512 70.5988 121.679 70.6062 121.846C70.6023 122.055 70.6607 122.261 70.7739 122.437C70.9097 122.61 71.0713 122.76 71.253 122.883C71.6124 123.112 71.9956 123.317 72.3669 123.522C72.8217 123.763 73.258 124.037 73.6724 124.343C74.0036 124.587 74.2741 124.904 74.4629 125.271C74.6652 125.692 74.7638 126.155 74.7504 126.622C74.7424 127.048 74.6226 127.465 74.4031 127.829C74.1304 128.248 73.7437 128.578 73.2892 128.782C72.7191 129.03 72.1016 129.15 71.4806 129.131C70.7263 129.13 69.9788 128.987 69.2768 128.709H69.0372ZM78.0202 127.829H81.7212V129.095H76.6428V119.445H78.0202V127.829ZM88.7998 126.622H84.4999L83.4819 129.144H82.0087L85.8294 119.493H87.2906L91.339 129.144H89.8538L88.7998 126.622ZM97.7229 127.274L97.8906 126.743L100.981 119.505H102.753V129.156H101.412V121.918L98.3697 129.156H97.1719L94.1177 121.918V129.156H92.7523V119.505H94.525L97.6271 126.803L97.7229 127.274ZM105.34 119.469H106.718V129.119H105.34V119.469ZM116.647 127.419V128.818L116.467 128.878C115.626 129.139 114.749 129.266 113.868 129.252C113.198 129.258 112.534 129.127 111.916 128.866C111.358 128.624 110.863 128.257 110.467 127.792C110.071 127.34 109.774 126.811 109.592 126.236C109.401 125.661 109.304 125.058 109.305 124.451C109.299 123.594 109.466 122.744 109.796 121.954C110.134 121.194 110.678 120.546 111.365 120.084C112.144 119.587 113.054 119.339 113.976 119.373C114.791 119.347 115.603 119.474 116.372 119.747H116.551L116.431 121.074L116.108 120.941C115.447 120.689 114.743 120.566 114.036 120.579C113.446 120.572 112.865 120.731 112.359 121.037C111.842 121.35 111.426 121.807 111.161 122.352C110.854 122.991 110.702 123.694 110.718 124.403C110.711 124.897 110.796 125.388 110.97 125.85C111.121 126.269 111.358 126.651 111.664 126.972C111.954 127.278 112.305 127.516 112.695 127.672C113.101 127.84 113.537 127.926 113.976 127.925C114.427 127.925 114.877 127.876 115.318 127.78C115.638 127.71 115.954 127.622 116.264 127.515L116.647 127.419ZM128.624 121.87V122.002L126.684 129.095H125.247L122.288 119.445H123.762L125.977 126.972L128.049 119.445H129.367L131.583 126.972L133.655 119.445H135.068L132.385 129.095H130.912L128.732 121.942L128.624 121.87ZM135.883 124.282C135.864 123.405 136.044 122.534 136.41 121.737C136.74 121.009 137.273 120.394 137.943 119.964C138.637 119.534 139.44 119.316 140.254 119.337C140.871 119.324 141.483 119.443 142.051 119.686C142.59 119.921 143.069 120.276 143.452 120.724C143.842 121.189 144.139 121.726 144.327 122.304C144.528 122.944 144.629 123.611 144.626 124.282C144.627 124.878 144.543 125.472 144.375 126.043C144.219 126.617 143.959 127.157 143.608 127.636C143.242 128.119 142.771 128.511 142.231 128.782C141.615 129.08 140.938 129.229 140.254 129.216C139.575 129.23 138.901 129.082 138.29 128.782C137.744 128.514 137.269 128.122 136.901 127.636C136.552 127.154 136.288 126.615 136.122 126.043C135.965 125.47 135.884 124.877 135.883 124.282ZM150.77 124.367L150.854 124.463C151.02 124.686 151.157 124.929 151.262 125.187L152.986 129.107H151.477L149.92 125.561C149.83 125.358 149.709 125.171 149.561 125.006C149.346 124.912 149.112 124.87 148.878 124.885H148.004V129.107H146.626V119.457H149.213C149.927 119.416 150.635 119.601 151.238 119.988C151.634 120.273 151.935 120.672 152.1 121.134C152.2 121.475 152.253 121.828 152.256 122.183C152.266 122.607 152.159 123.025 151.944 123.39C151.751 123.731 151.475 124.017 151.142 124.222C151.024 124.298 150.9 124.363 150.77 124.415V124.367ZM156.292 127.841H160.005V129.107H154.927V119.457H156.292V127.841ZM161.55 119.397H164.029C165.224 119.385 166.397 119.72 167.407 120.362C167.974 120.829 168.415 121.431 168.691 122.113C168.967 122.796 169.069 123.538 168.988 124.27C168.968 124.862 168.876 125.45 168.713 126.019C168.469 126.827 167.988 127.541 167.335 128.07C166.389 128.795 165.215 129.15 164.029 129.071H161.55V119.397ZM1.35336 120.663V123.583H2.3475C2.82185 123.599 3.28725 123.45 3.66502 123.16C3.82655 123.045 3.95707 122.891 4.04486 122.712C4.13266 122.533 4.17497 122.335 4.16804 122.135C4.1652 121.901 4.12475 121.669 4.04826 121.448C3.95243 121.222 3.79449 121.03 3.59315 120.893C3.30216 120.725 2.96955 120.646 2.63495 120.663H1.35336ZM39.1778 121.23L39.0939 121.472L37.5848 125.283H40.8785L39.2496 121.484L39.1778 121.23ZM86.584 121.23L86.5121 121.472L85.003 125.283H88.3566L86.7397 121.46L86.584 121.23ZM137.32 124.246C137.291 124.984 137.443 125.717 137.763 126.381C137.995 126.845 138.351 127.233 138.792 127.502C139.232 127.77 139.739 127.909 140.254 127.901C140.607 127.904 140.956 127.838 141.284 127.708C141.637 127.574 141.955 127.364 142.219 127.093C142.532 126.772 142.769 126.385 142.913 125.959C143.107 125.409 143.201 124.829 143.189 124.246C143.214 123.507 143.058 122.774 142.734 122.111C142.491 121.605 142.103 121.185 141.62 120.905C141.202 120.67 140.733 120.545 140.254 120.543C139.773 120.547 139.299 120.671 138.877 120.905C138.397 121.185 138.013 121.606 137.775 122.111C137.445 122.772 137.289 123.507 137.32 124.246ZM148.004 120.627V123.546H148.998C149.472 123.561 149.937 123.412 150.315 123.124C150.477 123.009 150.607 122.854 150.695 122.675C150.783 122.496 150.825 122.298 150.818 122.099C150.818 121.863 150.773 121.63 150.687 121.411C150.598 121.186 150.443 120.992 150.243 120.856C149.951 120.692 149.62 120.612 149.285 120.627H148.004ZM162.927 120.627V127.768H163.934C164.455 127.78 164.974 127.698 165.467 127.527C165.888 127.391 166.273 127.16 166.593 126.852C166.909 126.536 167.151 126.153 167.299 125.73C167.473 125.238 167.558 124.719 167.551 124.198C167.614 123.671 167.551 123.137 167.368 122.64C167.184 122.142 166.886 121.696 166.497 121.339C165.728 120.859 164.838 120.611 163.934 120.627H162.927Z" fill="#277B76"/>
<path d="M13.6901 152.569H14.2531V156.647H13.6901V152.569ZM3.68907 156.188C3.95352 156.218 4.2192 156.144 4.43165 155.983C4.50949 155.915 4.57055 155.829 4.61003 155.733C4.64951 155.636 4.66633 155.532 4.65923 155.428C4.66797 155.296 4.63439 155.165 4.56342 155.054C4.50244 154.957 4.42058 154.874 4.32386 154.813C4.21302 154.747 4.0913 154.702 3.96456 154.68C3.8291 154.668 3.6928 154.668 3.55733 154.68H3.41358V154.234H3.60522C3.70468 154.246 3.80518 154.246 3.90465 154.234C4.00684 154.218 4.10471 154.181 4.19213 154.125C4.30497 154.072 4.39752 153.983 4.45585 153.872C4.51418 153.761 4.53512 153.634 4.5155 153.51C4.51686 153.414 4.49639 153.319 4.45563 153.233C4.41677 153.159 4.36387 153.093 4.29992 153.04C4.23608 152.982 4.15703 152.945 4.07235 152.931C3.98496 152.919 3.89624 152.919 3.80885 152.931C3.6451 152.926 3.48204 152.955 3.32976 153.016C3.21229 153.06 3.09985 153.116 2.9944 153.185L2.79077 152.762L2.97042 152.666L3.20998 152.557L3.49743 152.473H3.82084C4.01098 152.469 4.20063 152.494 4.38377 152.545C4.52584 152.594 4.6563 152.672 4.76702 152.774C4.87032 152.866 4.94868 152.982 4.99459 153.112C5.04888 153.251 5.07731 153.398 5.07844 153.546C5.08294 153.745 5.01472 153.938 4.8868 154.089C4.77217 154.238 4.62452 154.358 4.45563 154.439C4.56226 154.466 4.66355 154.511 4.75507 154.572C4.85242 154.632 4.93774 154.709 5.00658 154.801C5.08711 154.892 5.14825 154.999 5.18623 155.115C5.23654 155.237 5.26101 155.368 5.25809 155.501C5.25873 155.67 5.22618 155.838 5.16229 155.995C5.103 156.148 5.00858 156.284 4.8868 156.393C4.74496 156.508 4.58223 156.594 4.40771 156.647C4.18629 156.713 3.9561 156.746 3.725 156.743H3.41358L3.11414 156.683L2.86263 156.61H2.70692L2.81471 156.14L3.15007 156.261C3.33304 156.313 3.52282 156.337 3.71301 156.333L3.68907 156.188ZM7.13854 153.559H8.33627V154.017H7.13854V155.428C7.1244 155.557 7.1244 155.686 7.13854 155.814C7.15722 155.898 7.19403 155.976 7.24633 156.043C7.29065 156.098 7.34853 156.14 7.41403 156.164C7.49734 156.178 7.58224 156.178 7.66555 156.164C7.79972 156.166 7.93332 156.146 8.06078 156.104L8.26441 156.031L8.3722 156.478C8.27904 156.521 8.18299 156.557 8.08476 156.586C7.92964 156.605 7.77275 156.605 7.61763 156.586C7.4421 156.593 7.26706 156.564 7.10261 156.502C6.97728 156.454 6.86601 156.375 6.77924 156.273C6.69488 156.154 6.6376 156.018 6.61154 155.875C6.59102 155.698 6.59102 155.52 6.61154 155.344V152.618L7.15053 152.521L7.13854 153.559ZM-0.0478516 153.353C0.176903 153.264 0.393358 153.155 0.598934 153.028C0.807149 152.879 0.999756 152.709 1.17382 152.521H1.55711V156.586H1.01811V153.269L0.838458 153.414L0.622876 153.546L0.371362 153.667L0.119812 153.764L-0.0478516 153.353ZM8.92315 156.622V152.159L9.47413 152.063V153.619L9.79751 153.534C9.90898 153.522 10.0214 153.522 10.1329 153.534C10.3379 153.527 10.542 153.564 10.7317 153.643C10.8832 153.697 11.0163 153.793 11.115 153.92C11.2126 154.054 11.2819 154.205 11.3186 154.367C11.3382 154.555 11.3382 154.745 11.3186 154.934V156.659H10.7797V155.054C10.7998 154.894 10.7998 154.732 10.7797 154.572C10.764 154.456 10.7231 154.344 10.6599 154.246C10.5979 154.168 10.5147 154.109 10.4203 154.077C10.3015 154.056 10.1798 154.056 10.061 154.077H9.88136H9.70167H9.55795H9.46214V156.622H8.92315ZM150.256 155.09C150.259 155.312 150.222 155.533 150.148 155.742C150.087 155.928 149.989 156.101 149.86 156.248C149.736 156.392 149.58 156.503 149.405 156.574C149.225 156.659 149.029 156.7 148.83 156.695C148.636 156.701 148.442 156.66 148.267 156.574C148.092 156.503 147.936 156.392 147.812 156.248C147.676 156.105 147.573 155.931 147.513 155.742C147.385 155.317 147.385 154.864 147.513 154.439C147.573 154.25 147.676 154.076 147.812 153.932C147.936 153.789 148.092 153.678 148.267 153.607C148.442 153.521 148.636 153.48 148.83 153.486C149.029 153.481 149.225 153.522 149.405 153.607C149.58 153.678 149.736 153.789 149.86 153.932C149.989 154.08 150.087 154.253 150.148 154.439C150.242 154.652 150.294 154.882 150.303 155.115L150.256 155.09ZM149.693 155.09C149.71 154.799 149.63 154.51 149.465 154.27C149.389 154.187 149.296 154.12 149.193 154.075C149.09 154.029 148.979 154.006 148.866 154.006C148.754 154.006 148.642 154.029 148.539 154.075C148.436 154.12 148.344 154.187 148.267 154.27C148.118 154.517 148.039 154.801 148.039 155.09C148.039 155.38 148.118 155.663 148.267 155.911C148.344 155.994 148.436 156.061 148.539 156.106C148.642 156.152 148.754 156.175 148.866 156.175C148.979 156.175 149.09 156.152 149.193 156.106C149.296 156.061 149.389 155.994 149.465 155.911C149.642 155.683 149.739 155.403 149.741 155.115L149.693 155.09ZM153.43 156.526C153.269 156.572 153.105 156.604 152.938 156.622C152.703 156.643 152.467 156.643 152.232 156.622C152.031 156.628 151.831 156.591 151.645 156.514C151.492 156.457 151.359 156.356 151.262 156.224C151.16 156.092 151.086 155.94 151.046 155.778C151.026 155.594 151.026 155.408 151.046 155.223V153.498H151.585V155.103C151.561 155.38 151.624 155.659 151.765 155.899C151.837 155.983 151.927 156.049 152.029 156.091C152.131 156.133 152.242 156.149 152.352 156.14H152.855H152.95V153.559H153.489V156.526H153.43ZM154.364 153.655L154.867 153.546C155.102 153.526 155.338 153.526 155.573 153.546C155.778 153.54 155.983 153.577 156.172 153.655C156.322 153.711 156.455 153.807 156.556 153.932C156.653 154.066 156.722 154.218 156.759 154.379C156.799 154.565 156.819 154.755 156.819 154.946V156.671H156.268V155.066C156.282 154.906 156.282 154.744 156.268 154.584C156.253 154.468 156.212 154.357 156.148 154.258C156.086 154.18 156.003 154.121 155.909 154.089C155.791 154.062 155.668 154.062 155.549 154.089H155.43H155.25H155.106H155.011V156.671H154.46V153.703L154.364 153.655ZM158.22 153.559H159.418V154.017H158.22V155.428C158.206 155.557 158.206 155.686 158.22 155.814C158.239 155.898 158.276 155.976 158.328 156.043C158.37 156.1 158.429 156.143 158.496 156.164C158.579 156.178 158.664 156.178 158.747 156.164C158.882 156.166 159.015 156.146 159.143 156.104L159.346 156.031L159.454 156.478C159.361 156.521 159.265 156.557 159.167 156.586C159.012 156.605 158.855 156.605 158.7 156.586C158.524 156.593 158.349 156.564 158.185 156.502C158.059 156.454 157.948 156.375 157.861 156.273C157.782 156.151 157.725 156.016 157.693 155.875C157.673 155.698 157.673 155.52 157.693 155.344V152.618L158.232 152.521L158.22 153.559ZM161.179 153.498H161.418H161.598H161.754H161.862L161.778 153.981L161.562 153.92C161.435 153.906 161.306 153.906 161.179 153.92C161.079 153.909 160.979 153.909 160.879 153.92H160.688V156.478H160.137V153.559L160.616 153.426C160.829 153.386 161.046 153.365 161.263 153.366L161.179 153.498ZM162.856 156.622H162.305V153.559H162.856V156.622ZM162.58 153.004C162.488 153.003 162.398 152.969 162.329 152.907C162.266 152.833 162.232 152.739 162.232 152.642C162.232 152.545 162.266 152.45 162.329 152.376C162.369 152.346 162.416 152.323 162.465 152.311C162.515 152.299 162.566 152.296 162.616 152.304C162.66 152.303 162.704 152.312 162.745 152.328C162.787 152.345 162.824 152.369 162.856 152.4C162.89 152.435 162.918 152.477 162.937 152.522C162.956 152.568 162.965 152.617 162.965 152.666C162.965 152.715 162.956 152.764 162.937 152.81C162.918 152.855 162.89 152.896 162.856 152.931C162.825 152.965 162.788 152.991 162.747 153.01C162.706 153.029 162.661 153.039 162.616 153.04L162.58 153.004ZM163.61 155.078C163.609 154.84 163.649 154.603 163.73 154.379C163.799 154.191 163.905 154.018 164.041 153.872C164.168 153.743 164.319 153.641 164.485 153.571C164.655 153.519 164.834 153.499 165.012 153.51C165.186 153.502 165.36 153.533 165.521 153.599C165.682 153.666 165.827 153.767 165.946 153.896C166.194 154.246 166.309 154.674 166.269 155.103V155.296H164.197C164.198 155.56 164.292 155.816 164.461 156.019C164.564 156.108 164.684 156.175 164.814 156.217C164.943 156.258 165.08 156.273 165.215 156.261C165.374 156.282 165.535 156.282 165.694 156.261C165.798 156.243 165.899 156.21 165.994 156.164L166.066 156.622C165.955 156.673 165.838 156.709 165.718 156.731C165.532 156.757 165.342 156.757 165.155 156.731C164.922 156.738 164.69 156.697 164.473 156.61C164.289 156.543 164.124 156.431 163.994 156.285C163.869 156.136 163.776 155.964 163.718 155.778C163.654 155.571 163.621 155.356 163.622 155.139L163.61 155.078ZM165.694 154.789C165.71 154.569 165.646 154.35 165.515 154.174C165.451 154.095 165.371 154.032 165.279 153.99C165.188 153.948 165.088 153.929 164.988 153.932C164.875 153.935 164.764 153.964 164.664 154.017C164.573 154.06 164.492 154.122 164.425 154.198C164.355 154.279 164.302 154.373 164.269 154.475C164.233 154.576 164.208 154.682 164.197 154.789H165.694ZM167.754 156.212C167.922 156.219 168.089 156.19 168.245 156.128C168.297 156.1 168.338 156.058 168.366 156.006C168.394 155.955 168.406 155.897 168.401 155.838C168.405 155.777 168.393 155.716 168.365 155.66C168.338 155.605 168.297 155.559 168.245 155.525C168.086 155.414 167.913 155.325 167.73 155.259L167.395 155.115C167.296 155.071 167.203 155.014 167.12 154.946C167.04 154.88 166.974 154.797 166.928 154.704C166.878 154.595 166.853 154.475 166.856 154.355C166.851 154.232 166.875 154.109 166.928 153.998C166.98 153.886 167.058 153.79 167.156 153.715C167.391 153.543 167.679 153.458 167.97 153.474H168.222H168.461H168.653H168.784L168.689 153.945L168.413 153.848C168.266 153.828 168.117 153.828 167.97 153.848C167.829 153.847 167.689 153.88 167.563 153.945C167.51 153.969 167.467 154.008 167.437 154.057C167.407 154.107 167.392 154.164 167.395 154.222C167.381 154.281 167.381 154.343 167.395 154.403C167.425 154.455 167.466 154.501 167.515 154.536C167.577 154.585 167.645 154.626 167.718 154.656L167.994 154.765L168.377 154.922C168.479 154.976 168.576 155.041 168.665 155.115C168.745 155.182 168.807 155.269 168.844 155.368C168.896 155.481 168.92 155.605 168.916 155.73C168.923 155.854 168.899 155.979 168.844 156.091C168.789 156.203 168.707 156.299 168.605 156.369C168.337 156.528 168.029 156.604 167.718 156.586C167.508 156.61 167.295 156.61 167.084 156.586L166.772 156.478L166.868 156.007L167.168 156.116C167.346 156.169 167.532 156.194 167.718 156.188L167.754 156.212ZM57.8385 155.078C57.8418 155.3 57.8053 155.521 57.7307 155.73C57.6703 155.919 57.5679 156.093 57.4313 156.236C57.3106 156.378 57.1589 156.49 56.9881 156.562C56.8002 156.649 56.596 156.694 56.3893 156.694C56.1826 156.694 55.9783 156.649 55.7904 156.562C55.6197 156.49 55.468 156.378 55.3473 156.236C55.2107 156.093 55.1083 155.919 55.0478 155.73C54.9036 155.308 54.9036 154.849 55.0478 154.427C55.1083 154.238 55.2107 154.064 55.3473 153.92C55.468 153.779 55.6197 153.667 55.7904 153.595C55.9783 153.508 56.1826 153.463 56.3893 153.463C56.596 153.463 56.8002 153.508 56.9881 153.595C57.1589 153.667 57.3106 153.779 57.4313 153.92C57.5679 154.064 57.6703 154.238 57.7307 154.427C57.826 154.644 57.8789 154.877 57.8864 155.115L57.8385 155.078ZM57.2636 155.078C57.2812 154.787 57.201 154.498 57.0361 154.258C56.965 154.16 56.871 154.081 56.7623 154.029C56.6536 153.976 56.5337 153.951 56.4132 153.957C56.2926 153.95 56.1723 153.974 56.0635 154.027C55.9546 154.08 55.8607 154.159 55.7904 154.258C55.6346 154.503 55.5518 154.788 55.5518 155.078C55.5518 155.369 55.6346 155.654 55.7904 155.899C55.8607 155.998 55.9546 156.077 56.0635 156.13C56.1723 156.183 56.2926 156.207 56.4132 156.2C56.5337 156.206 56.6536 156.181 56.7623 156.128C56.871 156.076 56.965 155.997 57.0361 155.899C57.2105 155.675 57.3072 155.399 57.3115 155.115L57.2636 155.078ZM58.5931 153.643L59.0962 153.534C59.3313 153.514 59.5677 153.514 59.8028 153.534C60.0078 153.527 60.2119 153.564 60.4017 153.643C60.5532 153.697 60.6862 153.793 60.785 153.92C60.8825 154.054 60.9518 154.205 60.9886 154.367C61.0281 154.553 61.0482 154.743 61.0485 154.934V156.659H60.5095V155.054C60.5303 154.894 60.5303 154.732 60.5095 154.572C60.4938 154.456 60.4529 154.344 60.3897 154.246C60.3277 154.168 60.2445 154.109 60.1502 154.077C60.0319 154.05 59.9091 154.05 59.7908 154.077H59.6112H59.4315H59.2878H59.192V156.659H58.641V153.691L58.5931 153.643ZM64.5818 155.078C64.585 155.3 64.5485 155.521 64.474 155.73C64.4174 155.918 64.3191 156.092 64.1865 156.236C64.0624 156.38 63.9065 156.491 63.7314 156.562C63.5563 156.648 63.363 156.689 63.1684 156.683C62.9701 156.688 62.7732 156.647 62.5935 156.562C62.4185 156.491 62.2625 156.38 62.1384 156.236C62.0028 156.094 61.9041 155.92 61.8509 155.73C61.7067 155.308 61.7067 154.849 61.8509 154.427C61.9041 154.237 62.0028 154.063 62.1384 153.92C62.2625 153.777 62.4185 153.666 62.5935 153.595C62.7732 153.51 62.9701 153.468 63.1684 153.474C63.363 153.468 63.5563 153.509 63.7314 153.595C63.9065 153.666 64.0624 153.777 64.1865 153.92C64.3191 154.065 64.4174 154.238 64.474 154.427C64.5817 154.641 64.6468 154.875 64.6656 155.115L64.5818 155.078ZM64.0188 155.078C64.0364 154.787 63.9562 154.498 63.7913 154.258C63.7148 154.165 63.6189 154.089 63.5101 154.038C63.4014 153.986 63.2827 153.959 63.1625 153.959C63.0422 153.959 62.9235 153.986 62.8148 154.038C62.7061 154.089 62.6101 154.165 62.5336 154.258C62.3846 154.505 62.3057 154.789 62.3057 155.078C62.3057 155.368 62.3846 155.651 62.5336 155.899C62.6101 155.992 62.7061 156.067 62.8148 156.119C62.9235 156.171 63.0422 156.198 63.1625 156.198C63.2827 156.198 63.4014 156.171 63.5101 156.119C63.6189 156.067 63.7148 155.992 63.7913 155.899C63.9786 155.679 64.0882 155.404 64.1027 155.115L64.0188 155.078ZM65.3483 153.643L65.8394 153.534C66.0745 153.514 66.3109 153.514 66.5461 153.534C66.7138 153.528 66.8811 153.556 67.0371 153.619C67.1644 153.669 67.279 153.748 67.3725 153.848L67.5042 153.764C67.5692 153.718 67.6424 153.685 67.7198 153.667L68.0073 153.571C68.1187 153.557 68.2313 153.557 68.3427 153.571C68.5361 153.563 68.7286 153.6 68.9056 153.679C69.0506 153.733 69.173 153.835 69.2529 153.969C69.3441 154.101 69.4017 154.255 69.4206 154.415C69.4399 154.599 69.4399 154.785 69.4206 154.97V156.695H68.8816V155.09C68.8892 154.938 68.8892 154.785 68.8816 154.632C68.8641 154.518 68.8277 154.408 68.7738 154.306C68.7329 154.222 68.6655 154.155 68.5822 154.113C68.4755 154.092 68.3655 154.092 68.2588 154.113C68.1039 154.108 67.9493 154.132 67.8037 154.186C67.7169 154.216 67.6359 154.261 67.5641 154.318C67.5961 154.429 67.6201 154.542 67.636 154.656C67.6424 154.781 67.6424 154.906 67.636 155.03V156.755H67.085V155.151C67.0986 154.998 67.0986 154.845 67.085 154.692C67.0675 154.579 67.0311 154.468 66.9772 154.367C66.9363 154.283 66.8689 154.215 66.7856 154.174C66.6789 154.152 66.5689 154.152 66.4622 154.174H66.2945H66.1149H65.9591H65.8633V156.755H65.3243V153.788L65.3483 153.643ZM70.9058 156.61H70.3668V153.546H70.9058V156.61ZM70.6303 152.992C70.5861 152.992 70.5421 152.984 70.501 152.967C70.4599 152.951 70.4224 152.926 70.3908 152.895C70.356 152.86 70.3284 152.819 70.3096 152.773C70.2908 152.728 70.2811 152.679 70.2811 152.63C70.2811 152.58 70.2908 152.531 70.3096 152.486C70.3284 152.44 70.356 152.399 70.3908 152.364C70.4224 152.333 70.4599 152.308 70.501 152.292C70.5421 152.275 70.5861 152.267 70.6303 152.268C70.7234 152.266 70.8136 152.301 70.8818 152.364C70.9166 152.399 70.9442 152.44 70.963 152.486C70.9819 152.531 70.9915 152.58 70.9915 152.63C70.9915 152.679 70.9819 152.728 70.963 152.773C70.9442 152.819 70.9166 152.86 70.8818 152.895C70.8424 152.96 70.7837 153.01 70.7141 153.04L70.6303 152.992ZM73.1575 156.61C72.936 156.616 72.7157 156.575 72.5107 156.49C72.3343 156.421 72.1778 156.309 72.0556 156.164C71.9218 156.025 71.8231 155.855 71.7682 155.67C71.7035 155.459 71.6712 155.239 71.6724 155.018C71.67 154.8 71.7065 154.584 71.7801 154.379C71.8374 154.191 71.9356 154.017 72.0676 153.872C72.1927 153.727 72.3481 153.612 72.5227 153.534C72.7112 153.451 72.9156 153.41 73.1216 153.414C73.2571 153.401 73.3934 153.401 73.5288 153.414C73.6641 153.436 73.7966 153.472 73.9241 153.522L73.8043 153.993C73.7138 153.946 73.6169 153.914 73.5168 153.896C73.4054 153.884 73.2929 153.884 73.1815 153.896C73.0513 153.887 72.9207 153.908 72.8001 153.958C72.6795 154.008 72.5722 154.086 72.4868 154.186C72.3031 154.422 72.2134 154.719 72.2353 155.018C72.236 155.173 72.2561 155.327 72.2952 155.476C72.3281 155.605 72.3895 155.725 72.4748 155.826C72.5527 155.928 72.656 156.007 72.7742 156.055C72.9199 156.109 73.0745 156.134 73.2294 156.128C73.3608 156.141 73.4932 156.141 73.6247 156.128L73.9001 156.043L73.972 156.502H73.8402H73.6366H73.3971L73.1575 156.61ZM76.8705 156.14C77.4694 156.14 77.7568 155.935 77.7568 155.525C77.7598 155.416 77.7351 155.308 77.685 155.211C77.629 155.121 77.5557 155.043 77.4694 154.982C77.3737 154.912 77.2689 154.855 77.158 154.813L76.7986 154.668L76.3794 154.499C76.2558 154.436 76.1394 154.359 76.0321 154.27C75.9366 154.182 75.8593 154.075 75.8045 153.957C75.7426 153.816 75.7139 153.664 75.7207 153.51C75.714 153.353 75.7429 153.197 75.8052 153.052C75.8674 152.908 75.9614 152.78 76.08 152.678C76.3674 152.466 76.7182 152.359 77.0741 152.376C77.3002 152.378 77.5254 152.406 77.7449 152.461C77.9006 152.493 78.0502 152.55 78.188 152.63L78.0083 153.1C77.8942 153.027 77.7687 152.974 77.637 152.943C77.4539 152.892 77.2642 152.867 77.0741 152.871C76.9747 152.858 76.8741 152.858 76.7747 152.871C76.6882 152.89 76.6066 152.927 76.5351 152.979C76.4646 153.024 76.4068 153.086 76.3674 153.16C76.3222 153.237 76.3013 153.325 76.3076 153.414C76.3002 153.51 76.321 153.607 76.3674 153.691C76.4141 153.767 76.4752 153.832 76.5471 153.884C76.6317 153.949 76.7243 154.001 76.8226 154.041L77.158 154.186L77.637 154.391C77.7751 154.458 77.904 154.543 78.0203 154.644C78.1276 154.742 78.2133 154.861 78.2718 154.994C78.3279 155.153 78.3563 155.32 78.3557 155.489C78.362 155.648 78.3293 155.806 78.2603 155.949C78.1914 156.092 78.0883 156.216 77.9604 156.309C77.6377 156.521 77.2553 156.623 76.8705 156.598C76.723 156.611 76.5748 156.611 76.4274 156.598L76.08 156.526L75.8045 156.429L75.6249 156.345L75.7926 155.875C75.9241 155.941 76.0602 155.997 76.1998 156.043C76.4169 156.111 76.6433 156.144 76.8705 156.14ZM81.4099 156.454C81.2492 156.5 81.0849 156.532 80.9188 156.55C80.6838 156.571 80.4473 156.571 80.2122 156.55C80.0111 156.556 79.8111 156.519 79.6253 156.441C79.4723 156.385 79.3391 156.284 79.242 156.152C79.1402 156.02 79.0668 155.868 79.0264 155.706C79.0068 155.521 79.0068 155.335 79.0264 155.151V153.426H79.5654V155.03C79.5415 155.308 79.6043 155.586 79.7451 155.826C79.8169 155.911 79.9075 155.976 80.0096 156.018C80.1116 156.06 80.2221 156.077 80.3319 156.068H80.835H80.9308V153.486H81.4698V156.454H81.4099ZM82.3441 153.583L82.8472 153.474C83.0823 153.454 83.3187 153.454 83.5538 153.474C83.7176 153.469 83.8807 153.498 84.033 153.559C84.1617 153.606 84.2768 153.685 84.3683 153.788L84.5001 153.703C84.5674 153.662 84.6399 153.629 84.7156 153.607L85.0031 153.51C85.1146 153.498 85.227 153.498 85.3385 153.51C85.5357 153.503 85.7321 153.54 85.9134 153.619C86.0561 153.677 86.1775 153.778 86.2607 153.908C86.3456 154.044 86.4026 154.196 86.4284 154.355C86.4415 154.539 86.4415 154.725 86.4284 154.91V156.635H85.9613V155.03C85.9749 154.878 85.9749 154.724 85.9613 154.572C85.953 154.458 85.9203 154.346 85.8655 154.246C85.8201 154.161 85.7486 154.094 85.6619 154.053C85.5551 154.031 85.4452 154.031 85.3385 154.053C85.0915 154.048 84.8488 154.119 84.6438 154.258C84.6816 154.367 84.7057 154.481 84.7156 154.596C84.722 154.72 84.722 154.845 84.7156 154.97V156.695H84.1767V155.09C84.1911 154.938 84.1911 154.785 84.1767 154.632C84.1684 154.518 84.1357 154.407 84.0808 154.306C84.0354 154.222 83.964 154.154 83.8772 154.113C83.7744 154.093 83.6686 154.093 83.5658 154.113H83.3862H83.2065H83.0508H82.967V156.695H82.416V153.727L82.3441 153.583ZM87.3626 153.583L87.8657 153.474C88.1008 153.454 88.3372 153.454 88.5723 153.474C88.7361 153.469 88.8991 153.498 89.0514 153.559C89.1819 153.603 89.2978 153.682 89.3868 153.788L89.5186 153.703C89.5859 153.662 89.6584 153.629 89.7341 153.607L90.0216 153.51C90.1331 153.498 90.2455 153.498 90.357 153.51C90.5543 153.502 90.751 153.539 90.9319 153.619C91.0746 153.677 91.196 153.778 91.2792 153.908C91.3641 154.044 91.4211 154.196 91.4469 154.355C91.46 154.539 91.46 154.725 91.4469 154.91V156.635H90.9079V155.03C90.9215 154.878 90.9215 154.724 90.9079 154.572C90.8996 154.458 90.8669 154.346 90.8121 154.246C90.7667 154.161 90.6953 154.094 90.6085 154.053C90.5018 154.031 90.3918 154.031 90.2851 154.053C90.0381 154.048 89.7954 154.119 89.5904 154.258C89.6283 154.367 89.6524 154.481 89.6623 154.596C89.6687 154.72 89.6687 154.845 89.6623 154.97V156.695H89.1233V155.09C89.1378 154.938 89.1378 154.785 89.1233 154.632C89.115 154.518 89.0823 154.407 89.0275 154.306C88.9821 154.222 88.9107 154.154 88.8239 154.113C88.7211 154.093 88.6153 154.093 88.5125 154.113H88.3328H88.1531H87.9974H87.9136V156.695H87.3626V153.727V153.583ZM92.9321 156.55H92.3811V153.486H92.9321V156.55ZM92.6566 152.931C92.5639 152.931 92.4746 152.896 92.4051 152.835C92.3426 152.761 92.3083 152.667 92.3083 152.569C92.3083 152.472 92.3426 152.378 92.4051 152.304C92.4748 152.243 92.5642 152.209 92.6566 152.209C92.749 152.209 92.8384 152.243 92.9081 152.304C92.9706 152.378 93.0049 152.472 93.0049 152.569C93.0049 152.667 92.9706 152.761 92.9081 152.835C92.8781 152.921 92.8187 152.994 92.7405 153.04L92.6566 152.931ZM94.3694 153.474H95.5671V153.932H94.3694V155.344C94.3552 155.472 94.3552 155.602 94.3694 155.73C94.388 155.813 94.4248 155.892 94.4771 155.959C94.5163 156.019 94.5761 156.062 94.6448 156.08C94.7281 156.093 94.8131 156.093 94.8964 156.08C95.0305 156.082 95.1642 156.062 95.2916 156.019L95.4952 155.947L95.603 156.393C95.5098 156.436 95.4138 156.472 95.3156 156.502C95.1604 156.521 95.0036 156.521 94.8485 156.502C94.6729 156.509 94.4976 156.48 94.3334 156.417C94.2081 156.37 94.0968 156.291 94.01 156.188C93.9257 156.07 93.8684 155.934 93.8423 155.79C93.8224 155.614 93.8224 155.436 93.8423 155.259V152.533L94.3813 152.437L94.3694 153.474ZM100.226 155.006C100.23 155.228 100.193 155.449 100.118 155.657C100.057 155.844 99.9594 156.016 99.831 156.164C99.7069 156.307 99.551 156.419 99.3759 156.49C99.1963 156.575 98.9993 156.616 98.801 156.61C98.6064 156.617 98.4132 156.575 98.238 156.49C98.0616 156.421 97.9051 156.309 97.7829 156.164C97.6463 156.02 97.5439 155.847 97.4835 155.657C97.3555 155.233 97.3555 154.779 97.4835 154.355C97.5439 154.165 97.6463 153.992 97.7829 153.848C97.9051 153.703 98.0616 153.591 98.238 153.522C98.4132 153.437 98.6064 153.395 98.801 153.402C98.9993 153.396 99.1963 153.437 99.3759 153.522C99.551 153.593 99.7069 153.705 99.831 153.848C99.9594 153.996 100.057 154.168 100.118 154.355C100.244 154.589 100.318 154.849 100.334 155.115L100.226 155.006ZM99.6633 155.006C99.6756 154.715 99.5959 154.428 99.4358 154.186C99.3621 154.087 99.2659 154.009 99.1553 153.956C99.0447 153.904 98.9231 153.879 98.801 153.884C98.6805 153.879 98.5606 153.904 98.4519 153.956C98.3432 154.009 98.2492 154.088 98.1782 154.186C98.0291 154.433 97.9502 154.717 97.9502 155.006C97.9502 155.295 98.0291 155.579 98.1782 155.826C98.2492 155.924 98.3432 156.003 98.4519 156.056C98.5606 156.109 98.6805 156.133 98.801 156.128C98.9231 156.133 99.0447 156.108 99.1553 156.056C99.2659 156.003 99.3621 155.925 99.4358 155.826C99.6054 155.624 99.7136 155.377 99.7472 155.115L99.6633 155.006ZM102.179 151.978C102.314 151.965 102.45 151.965 102.586 151.978H102.825L102.73 152.449L102.526 152.376H102.215C102.117 152.366 102.018 152.38 101.927 152.415C101.835 152.451 101.753 152.508 101.688 152.581C101.574 152.743 101.519 152.939 101.532 153.136V153.402H102.73V153.86H101.532V156.466H100.993V153.136C100.971 152.805 101.074 152.478 101.28 152.22C101.401 152.108 101.543 152.023 101.697 151.969C101.852 151.915 102.016 151.894 102.179 151.906V151.978ZM106.598 154.825L106.838 155.139C106.934 155.259 107.029 155.404 107.137 155.561L107.437 156.043C107.532 156.212 107.616 156.381 107.688 156.538H107.065C106.993 156.381 106.898 156.236 106.814 156.08C106.73 155.923 106.634 155.778 106.538 155.645L106.263 155.247L106.011 154.934H105.185V156.514H104.622V152.509L105.161 152.425H105.7C106.154 152.395 106.606 152.509 106.993 152.75C107.142 152.857 107.261 153.001 107.339 153.168C107.417 153.335 107.45 153.519 107.437 153.703C107.442 153.952 107.371 154.196 107.233 154.403C107.068 154.605 106.847 154.752 106.598 154.825ZM105.748 152.919H105.185V154.451H105.592C105.768 154.464 105.944 154.464 106.119 154.451C106.257 154.444 106.392 154.407 106.514 154.343C106.616 154.293 106.699 154.213 106.754 154.113C106.821 153.992 106.854 153.854 106.85 153.715C106.852 153.58 106.819 153.447 106.754 153.329C106.701 153.23 106.622 153.146 106.526 153.088C106.413 153.032 106.292 152.991 106.167 152.967C106.054 152.979 105.942 153 105.832 153.028L105.748 152.919ZM110.671 156.441C110.51 156.488 110.346 156.52 110.179 156.538C109.944 156.559 109.708 156.559 109.473 156.538C109.272 156.545 109.071 156.508 108.886 156.429C108.729 156.373 108.592 156.272 108.491 156.14C108.387 156.01 108.318 155.857 108.287 155.694C108.237 155.513 108.213 155.326 108.215 155.139V153.414H108.766V155.018C108.745 155.294 108.803 155.57 108.934 155.814C109.006 155.898 109.096 155.964 109.198 156.006C109.3 156.048 109.411 156.065 109.521 156.055H110.036H110.132V153.474H110.671V156.441ZM112.311 156.14C112.479 156.147 112.646 156.118 112.802 156.055C112.853 156.028 112.895 155.985 112.923 155.934C112.951 155.883 112.963 155.824 112.958 155.766C112.962 155.705 112.949 155.643 112.922 155.588C112.895 155.533 112.854 155.486 112.802 155.452C112.643 155.342 112.47 155.252 112.287 155.187L111.952 155.042C111.853 154.999 111.76 154.942 111.677 154.873C111.597 154.807 111.531 154.725 111.485 154.632C111.435 154.523 111.41 154.403 111.413 154.282C111.408 154.159 111.432 154.037 111.485 153.925C111.537 153.814 111.615 153.717 111.713 153.643C111.949 153.473 112.236 153.388 112.527 153.402H112.779H113.018H113.21H113.341L113.246 153.872L112.97 153.776C112.823 153.755 112.674 153.755 112.527 153.776C112.389 153.773 112.253 153.806 112.132 153.872C112.077 153.894 112.031 153.933 111.999 153.982C111.966 154.032 111.95 154.09 111.952 154.15C111.933 154.208 111.933 154.272 111.952 154.331C111.977 154.383 112.014 154.428 112.06 154.463C112.122 154.513 112.19 154.554 112.263 154.584L112.539 154.692L112.922 154.849C113.028 154.898 113.125 154.963 113.21 155.042C113.29 155.113 113.355 155.199 113.401 155.296C113.443 155.412 113.463 155.534 113.461 155.657C113.468 155.782 113.444 155.906 113.389 156.018C113.334 156.13 113.252 156.226 113.15 156.297C112.883 156.458 112.574 156.534 112.263 156.514C112.053 156.538 111.84 156.538 111.629 156.514L111.317 156.405L111.425 155.935L111.713 156.043C111.891 156.097 112.077 156.121 112.263 156.116L112.311 156.14ZM114.91 156.14C115.078 156.147 115.246 156.118 115.402 156.055C115.453 156.028 115.494 155.985 115.522 155.934C115.55 155.883 115.562 155.824 115.557 155.766C115.561 155.705 115.549 155.643 115.521 155.588C115.494 155.533 115.453 155.486 115.402 155.452C115.242 155.342 115.069 155.252 114.887 155.187L114.551 155.042C114.452 154.999 114.36 154.942 114.276 154.873C114.196 154.807 114.131 154.725 114.084 154.632C114.034 154.523 114.009 154.403 114.012 154.282C114.007 154.159 114.031 154.037 114.084 153.925C114.136 153.814 114.214 153.717 114.312 153.643C114.548 153.473 114.835 153.388 115.126 153.402H115.378H115.617H115.821H115.941L115.845 153.872L115.569 153.776C115.422 153.755 115.273 153.755 115.126 153.776C114.988 153.773 114.852 153.806 114.731 153.872C114.676 153.894 114.63 153.933 114.598 153.982C114.566 154.032 114.549 154.09 114.551 154.15C114.537 154.209 114.537 154.271 114.551 154.331C114.576 154.383 114.613 154.428 114.659 154.463C114.721 154.513 114.789 154.554 114.863 154.584L115.138 154.692L115.521 154.849C115.627 154.898 115.724 154.963 115.809 155.042C115.889 155.113 115.954 155.199 116 155.296C116.022 155.415 116.022 155.538 116 155.657C116.008 155.782 115.983 155.906 115.928 156.018C115.874 156.13 115.791 156.226 115.689 156.297C115.422 156.458 115.113 156.534 114.803 156.514C114.592 156.538 114.379 156.538 114.168 156.514L113.856 156.405L113.964 155.935L114.252 156.043C114.43 156.097 114.616 156.121 114.803 156.116L114.91 156.14ZM117.306 156.538H116.767V153.474H117.306V156.538ZM117.03 152.919C116.986 152.92 116.942 152.912 116.901 152.895C116.86 152.878 116.823 152.854 116.791 152.823C116.756 152.788 116.729 152.747 116.71 152.701C116.691 152.655 116.681 152.607 116.681 152.557C116.681 152.508 116.691 152.459 116.71 152.414C116.729 152.368 116.756 152.327 116.791 152.292C116.823 152.261 116.86 152.236 116.901 152.22C116.942 152.203 116.986 152.195 117.03 152.195C117.123 152.196 117.213 152.23 117.282 152.292C117.344 152.366 117.379 152.46 117.379 152.557C117.379 152.655 117.344 152.749 117.282 152.823C117.252 152.915 117.187 152.993 117.102 153.04L117.03 152.919ZM119.27 156.128H119.606C119.689 156.141 119.774 156.141 119.857 156.128V155.223C119.794 155.212 119.729 155.212 119.665 155.223H119.354H119.091C119.003 155.233 118.918 155.257 118.839 155.296C118.766 155.33 118.7 155.379 118.647 155.44C118.597 155.519 118.572 155.612 118.576 155.706C118.567 155.782 118.579 155.86 118.61 155.93C118.642 156 118.692 156.06 118.755 156.104C118.912 156.193 119.091 156.235 119.27 156.224V156.128ZM119.27 153.39C119.457 153.383 119.644 153.412 119.821 153.474C119.955 153.53 120.077 153.612 120.181 153.715C120.274 153.822 120.34 153.951 120.372 154.089C120.417 154.242 120.437 154.401 120.432 154.56V156.466H120.24H119.953H119.618H119.246C119.091 156.485 118.934 156.485 118.779 156.466C118.646 156.441 118.519 156.387 118.408 156.309C118.302 156.229 118.216 156.126 118.156 156.007C118.101 155.861 118.073 155.706 118.072 155.549C118.068 155.397 118.106 155.247 118.18 155.115C118.243 154.993 118.338 154.893 118.456 154.825C118.582 154.747 118.719 154.69 118.863 154.656C119.026 154.637 119.191 154.637 119.354 154.656H119.522H119.689H119.821H119.905V154.717C119.911 154.628 119.911 154.54 119.905 154.451C119.884 154.369 119.847 154.291 119.797 154.222C119.739 154.15 119.665 154.092 119.582 154.053C119.475 154.01 119.361 153.99 119.246 153.993C119.091 153.979 118.935 153.979 118.779 153.993C118.676 154.005 118.575 154.034 118.48 154.077L118.408 153.619C118.525 153.58 118.645 153.551 118.767 153.534C118.942 153.515 119.119 153.515 119.294 153.534L119.27 153.39ZM123.702 156.128H124.049C124.132 156.141 124.217 156.141 124.301 156.128V155.223C124.237 155.213 124.173 155.213 124.109 155.223H123.786H123.534C123.447 155.233 123.362 155.257 123.283 155.296C123.208 155.327 123.142 155.376 123.091 155.44C123.031 155.515 123.001 155.61 123.007 155.706C123.001 155.783 123.015 155.861 123.049 155.931C123.083 156.001 123.134 156.061 123.199 156.104C123.351 156.193 123.526 156.235 123.702 156.224V156.128ZM123.702 153.39C123.889 153.381 124.076 153.41 124.253 153.474C124.392 153.527 124.519 153.609 124.624 153.715C124.714 153.825 124.779 153.952 124.816 154.089C124.835 154.246 124.835 154.403 124.816 154.56V156.466H124.612H124.337H123.989H123.63C123.475 156.485 123.318 156.485 123.163 156.466C123.026 156.441 122.895 156.388 122.78 156.309C122.681 156.225 122.599 156.123 122.54 156.007C122.479 155.862 122.45 155.706 122.456 155.549C122.454 155.399 122.487 155.25 122.552 155.115C122.621 154.999 122.716 154.9 122.828 154.825C122.953 154.747 123.091 154.69 123.235 154.656C123.398 154.638 123.563 154.638 123.726 154.656H123.905H124.061H124.205H124.289V154.717C124.3 154.628 124.3 154.539 124.289 154.451C124.273 154.367 124.236 154.288 124.181 154.222C124.127 154.15 124.057 154.092 123.977 154.053C123.87 154.011 123.757 153.991 123.642 153.993C123.483 153.979 123.322 153.979 123.163 153.993C123.06 154.008 122.959 154.036 122.863 154.077L122.804 153.619C122.917 153.581 123.033 153.553 123.151 153.534C123.326 153.516 123.503 153.516 123.678 153.534L123.702 153.39ZM125.774 153.559L126.265 153.45C126.504 153.43 126.744 153.43 126.984 153.45C127.189 153.444 127.392 153.481 127.582 153.559C127.733 153.615 127.865 153.711 127.966 153.836C128.06 153.971 128.129 154.122 128.169 154.282C128.189 154.471 128.189 154.661 128.169 154.849V156.574H127.63V154.97C127.645 154.809 127.645 154.648 127.63 154.487C127.611 154.37 127.566 154.259 127.499 154.162C127.441 154.084 127.362 154.025 127.271 153.993C127.153 153.965 127.03 153.965 126.912 153.993H126.732H126.552H126.397H126.301V156.574H125.762V153.607L125.774 153.559ZM131.08 154.113C130.993 154.047 130.896 153.994 130.792 153.957C130.665 153.898 130.526 153.869 130.385 153.872C130.249 153.872 130.114 153.901 129.99 153.957C129.88 154.013 129.786 154.096 129.714 154.198C129.641 154.304 129.589 154.422 129.559 154.548C129.546 154.696 129.546 154.845 129.559 154.994C129.543 155.291 129.637 155.583 129.822 155.814C129.912 155.911 130.022 155.987 130.144 156.037C130.266 156.087 130.397 156.11 130.529 156.104H130.9H131.128L131.08 154.113ZM131.08 152.063L131.619 151.966V156.429L131.14 156.538C130.917 156.558 130.692 156.558 130.469 156.538C130.256 156.541 130.045 156.505 129.846 156.429C129.666 156.361 129.502 156.254 129.367 156.116C129.229 155.971 129.123 155.798 129.056 155.609C128.981 155.396 128.945 155.172 128.948 154.946C128.949 154.725 128.981 154.506 129.044 154.294C129.106 154.009 129.27 153.757 129.503 153.584C129.737 153.411 130.025 153.329 130.313 153.353C130.471 153.346 130.629 153.367 130.78 153.414C130.886 153.45 130.986 153.498 131.08 153.559V152.063ZM133.775 154.475C133.766 154.158 133.818 153.843 133.93 153.546C134.019 153.297 134.163 153.07 134.35 152.883C134.522 152.707 134.73 152.571 134.96 152.485C135.2 152.388 135.457 152.339 135.715 152.34C135.966 152.338 136.214 152.387 136.446 152.485C136.679 152.565 136.888 152.702 137.057 152.883C137.239 153.073 137.382 153.299 137.476 153.546C137.683 154.144 137.683 154.795 137.476 155.392C137.382 155.64 137.239 155.865 137.057 156.055C136.886 156.236 136.677 156.376 136.446 156.466C136.212 156.554 135.965 156.598 135.715 156.598C135.458 156.597 135.203 156.552 134.96 156.466C134.732 156.371 134.525 156.231 134.35 156.055C134.163 155.868 134.019 155.642 133.93 155.392C133.844 155.14 133.799 154.875 133.799 154.608L133.775 154.475ZM134.362 154.475C134.361 154.7 134.393 154.924 134.457 155.139C134.513 155.326 134.603 155.502 134.721 155.657C134.835 155.796 134.978 155.907 135.14 155.983C135.319 156.057 135.51 156.094 135.703 156.092C135.892 156.095 136.08 156.058 136.254 155.983C136.418 155.91 136.562 155.799 136.673 155.657C136.792 155.502 136.881 155.326 136.937 155.139C137.001 154.924 137.034 154.7 137.033 154.475C137.034 154.247 137.001 154.019 136.937 153.8C136.881 153.612 136.792 153.436 136.673 153.281C136.555 153.147 136.413 153.036 136.254 152.955C136.08 152.88 135.892 152.843 135.703 152.847C135.51 152.844 135.319 152.881 135.14 152.955C134.983 153.039 134.841 153.149 134.721 153.281C134.603 153.436 134.513 153.612 134.457 153.8C134.387 154.063 134.363 154.336 134.386 154.608L134.362 154.475ZM138.47 152.437H139.033V156.514H138.47V152.437ZM141.776 156.598C141.509 156.602 141.245 156.552 140.997 156.454C140.771 156.361 140.567 156.222 140.398 156.043C140.227 155.851 140.096 155.625 140.015 155.38C139.832 154.787 139.832 154.152 140.015 153.559C140.113 153.313 140.255 153.088 140.434 152.895C140.609 152.719 140.817 152.58 141.045 152.485C141.281 152.388 141.533 152.339 141.788 152.34C141.939 152.327 142.091 152.327 142.243 152.34C142.361 152.358 142.477 152.387 142.59 152.425L142.842 152.521L142.961 152.593L142.806 153.064L142.65 152.979L142.422 152.907C142.335 152.869 142.242 152.844 142.147 152.835H141.847C141.651 152.833 141.455 152.87 141.273 152.943C141.106 153.017 140.959 153.129 140.841 153.269C140.717 153.418 140.624 153.59 140.566 153.776C140.496 153.998 140.463 154.23 140.47 154.463C140.466 154.687 140.494 154.911 140.554 155.127C140.597 155.313 140.683 155.487 140.805 155.633C140.918 155.776 141.061 155.892 141.225 155.971C141.411 156.046 141.611 156.083 141.812 156.08C142.033 156.084 142.255 156.06 142.47 156.007L142.854 155.85L142.997 156.321L142.854 156.393L142.59 156.49L142.219 156.55C142.067 156.563 141.915 156.563 141.764 156.55L141.776 156.598ZM146.279 156.598C146.061 156.605 145.845 156.564 145.644 156.478C145.463 156.413 145.302 156.3 145.177 156.152C145.043 156.013 144.945 155.843 144.89 155.657C144.825 155.446 144.793 155.227 144.794 155.006C144.792 154.788 144.828 154.572 144.902 154.367C144.959 154.178 145.057 154.005 145.189 153.86C145.314 153.715 145.47 153.6 145.644 153.522C145.833 153.439 146.037 153.397 146.243 153.402C146.383 153.39 146.523 153.39 146.662 153.402C146.793 153.425 146.922 153.461 147.046 153.51L146.926 153.981C146.835 153.934 146.738 153.902 146.638 153.884C146.527 153.872 146.414 153.872 146.303 153.884C146.173 153.876 146.043 153.897 145.922 153.947C145.802 153.998 145.694 154.075 145.608 154.174C145.425 154.41 145.335 154.707 145.357 155.006C145.338 155.158 145.338 155.312 145.357 155.464C145.39 155.593 145.451 155.713 145.536 155.814C145.614 155.916 145.718 155.995 145.836 156.043C145.982 156.095 146.136 156.119 146.291 156.116C146.422 156.129 146.555 156.129 146.686 156.116C146.78 156.095 146.872 156.066 146.962 156.031L147.034 156.49H146.902H146.698H146.471L146.279 156.598ZM53.8621 156.598C53.6443 156.605 53.4276 156.564 53.2273 156.478C53.0457 156.413 52.8845 156.3 52.7602 156.152C52.6263 156.013 52.5277 155.843 52.4727 155.657C52.4081 155.446 52.3757 155.227 52.3769 155.006C52.3745 154.788 52.411 154.572 52.4847 154.367C52.542 154.178 52.6402 154.005 52.7721 153.86C52.8973 153.715 53.0527 153.6 53.2273 153.522C53.4158 153.439 53.6202 153.397 53.8262 153.402C53.9656 153.39 54.1058 153.39 54.2453 153.402C54.3763 153.425 54.5047 153.461 54.6286 153.51L54.5088 153.981C54.4183 153.934 54.3214 153.902 54.2214 153.884C54.1099 153.872 53.9975 153.872 53.886 153.884C53.7558 153.875 53.6252 153.896 53.5046 153.946C53.384 153.996 53.2768 154.074 53.1914 154.174C53.0076 154.41 52.9179 154.707 52.9398 155.006C52.9405 155.161 52.9606 155.315 52.9997 155.464C53.0326 155.593 53.094 155.713 53.1794 155.814C53.2572 155.916 53.3606 155.995 53.4788 156.043C53.625 156.095 53.7792 156.119 53.9339 156.116C54.0654 156.129 54.1977 156.129 54.3292 156.116C54.4229 156.095 54.515 156.066 54.6047 156.031L54.6765 156.49H54.5448H54.3412H54.1016L53.8621 156.598ZM20.6609 155.006C20.6536 154.767 20.6943 154.529 20.7807 154.306C20.8458 154.119 20.9477 153.947 21.0801 153.8C21.2069 153.671 21.3574 153.569 21.5233 153.498C21.6881 153.436 21.8624 153.403 22.0383 153.402C22.2126 153.394 22.3864 153.424 22.5478 153.491C22.7092 153.557 22.8541 153.659 22.9726 153.788C23.2316 154.133 23.3514 154.564 23.3079 154.994V155.09C23.3138 155.122 23.3138 155.155 23.3079 155.187H21.2838C21.2829 155.454 21.3811 155.712 21.5592 155.911C21.6597 156.001 21.7776 156.068 21.9054 156.11C22.0332 156.151 22.1682 156.166 22.3018 156.152C22.4608 156.174 22.6219 156.174 22.7809 156.152C22.8848 156.134 22.9856 156.102 23.0804 156.055L23.1522 156.514C23.0419 156.566 22.925 156.602 22.8049 156.622C22.6181 156.649 22.4287 156.649 22.2419 156.622C22.0085 156.63 21.7762 156.589 21.5592 156.502C21.3755 156.434 21.211 156.322 21.0801 156.176C20.956 156.027 20.8624 155.855 20.8047 155.67C20.7442 155.462 20.7159 155.246 20.7208 155.03L20.6609 155.006ZM22.733 154.717C22.7545 154.496 22.6901 154.275 22.5533 154.101C22.4926 154.023 22.4143 153.96 22.3248 153.918C22.2352 153.876 22.137 153.856 22.0383 153.86C21.9214 153.861 21.8064 153.89 21.703 153.945C21.6117 153.988 21.5302 154.049 21.4634 154.125C21.3932 154.206 21.3402 154.301 21.3077 154.403C21.2712 154.504 21.2471 154.609 21.2358 154.717H22.733ZM25.2003 153.414H25.368H25.5477H25.7034H25.8112L25.7154 153.896C25.6466 153.866 25.574 153.846 25.4998 153.836C25.3764 153.821 25.2518 153.821 25.1285 153.836C25.029 153.823 24.9284 153.823 24.829 153.836H24.6254V156.393H24.0864V153.474L24.5655 153.341C24.7748 153.302 24.9873 153.281 25.2003 153.281V153.414ZM26.3382 153.571L26.8293 153.462C27.0684 153.442 27.3088 153.442 27.5479 153.462C27.7528 153.456 27.9567 153.493 28.1468 153.571C28.2968 153.627 28.4291 153.723 28.53 153.848C28.6202 153.984 28.6851 154.135 28.7217 154.294C28.7471 154.482 28.7471 154.673 28.7217 154.861V156.586H28.1827V154.982C28.1969 154.821 28.1969 154.66 28.1827 154.499C28.1631 154.382 28.1181 154.271 28.0509 154.174C27.9937 154.096 27.9144 154.037 27.8234 154.005C27.7051 153.977 27.5823 153.977 27.4641 154.005H27.2844H27.1047H26.949H26.8532V156.586H26.3142V153.619L26.3382 153.571ZM30.7099 156.14H31.0573C31.1365 156.154 31.2176 156.154 31.2968 156.14V155.235C31.2335 155.222 31.1684 155.222 31.1052 155.235H30.7937H30.5302L30.2787 155.308C30.2074 155.345 30.1426 155.394 30.0871 155.452C30.0367 155.531 30.0116 155.624 30.0152 155.718C30.0061 155.796 30.0192 155.874 30.0532 155.945C30.0871 156.016 30.1405 156.075 30.2069 156.116C30.3586 156.206 30.534 156.248 30.7099 156.236V156.14ZM30.7099 153.402C30.8971 153.395 31.0839 153.424 31.2608 153.486C31.3983 153.536 31.5217 153.619 31.6202 153.727C31.7133 153.836 31.7827 153.964 31.8238 154.101C31.8427 154.258 31.8427 154.416 31.8238 154.572V156.478H31.6322H31.3447H31.0093H30.65C30.4909 156.498 30.33 156.498 30.1709 156.478C30.0374 156.453 29.9108 156.399 29.7996 156.321C29.6941 156.244 29.6113 156.14 29.5601 156.019C29.495 155.875 29.4623 155.719 29.4642 155.561C29.4601 155.409 29.4974 155.259 29.5721 155.127C29.6345 155.006 29.7301 154.905 29.8475 154.837C29.9735 154.759 30.111 154.702 30.2548 154.668C30.4179 154.65 30.5827 154.65 30.7458 154.668H30.9135H31.0812H31.213H31.2968V154.717C31.3027 154.628 31.3027 154.54 31.2968 154.451C31.2755 154.369 31.239 154.291 31.189 154.222C31.1354 154.15 31.0656 154.092 30.9854 154.053C30.8744 154.011 30.7565 153.991 30.638 153.993C30.4826 153.979 30.3263 153.979 30.1709 153.993C30.0674 154.005 29.9664 154.034 29.8715 154.077L29.8116 153.619C29.9239 153.578 30.0404 153.549 30.159 153.534C30.3341 153.515 30.5108 153.515 30.686 153.534L30.7099 153.402ZM33.285 153.474H34.4827V153.932H33.285V155.344C33.2709 155.472 33.2709 155.602 33.285 155.73C33.2997 155.812 33.3325 155.891 33.3809 155.959C33.4276 156.016 33.4901 156.058 33.5605 156.08C33.6438 156.093 33.7287 156.093 33.812 156.08C33.9423 156.082 34.072 156.062 34.1953 156.019L34.4109 155.947L34.5067 156.393C34.4189 156.439 34.3265 156.475 34.2312 156.502C34.0761 156.521 33.9193 156.521 33.7641 156.502C33.5884 156.512 33.4125 156.483 33.2491 156.417C33.1238 156.37 33.0125 156.291 32.9257 156.188C32.8369 156.072 32.7792 155.935 32.758 155.79C32.738 155.614 32.738 155.436 32.758 155.259V152.533L33.297 152.437L33.285 153.474ZM35.6805 156.538H35.1415V153.474H35.6565L35.6805 156.538ZM35.417 152.919C35.3239 152.921 35.2337 152.886 35.1655 152.823C35.1307 152.788 35.1031 152.747 35.0843 152.701C35.0655 152.655 35.0558 152.607 35.0558 152.557C35.0558 152.508 35.0655 152.459 35.0843 152.414C35.1031 152.368 35.1307 152.327 35.1655 152.292C35.2337 152.228 35.3239 152.194 35.417 152.195C35.4613 152.195 35.5052 152.203 35.5463 152.22C35.5874 152.236 35.6249 152.261 35.6565 152.292C35.6913 152.327 35.7189 152.368 35.7377 152.414C35.7565 152.459 35.7662 152.508 35.7662 152.557C35.7662 152.607 35.7565 152.655 35.7377 152.701C35.7189 152.747 35.6913 152.788 35.6565 152.823C35.634 152.883 35.595 152.935 35.5441 152.973C35.4932 153.012 35.4325 153.035 35.3691 153.04L35.417 152.919ZM39.2977 154.994C39.3009 155.216 39.2644 155.437 39.1899 155.645C39.1294 155.835 39.027 156.008 38.8904 156.152C38.7697 156.294 38.618 156.405 38.4472 156.478C38.2593 156.564 38.0551 156.609 37.8484 156.609C37.6417 156.609 37.4374 156.564 37.2495 156.478C37.0788 156.405 36.9271 156.294 36.8064 156.152C36.6697 156.008 36.5674 155.835 36.5069 155.645C36.3627 155.223 36.3627 154.765 36.5069 154.343C36.5674 154.153 36.6697 153.98 36.8064 153.836C36.9271 153.694 37.0788 153.583 37.2495 153.51C37.4374 153.424 37.6417 153.379 37.8484 153.379C38.0551 153.379 38.2593 153.424 38.4472 153.51C38.618 153.583 38.7697 153.694 38.8904 153.836C39.027 153.98 39.1294 154.153 39.1899 154.343C39.2638 154.593 39.2842 154.856 39.2497 155.115L39.2977 154.994ZM38.7227 154.994C38.7403 154.703 38.6601 154.414 38.4952 154.174C38.4199 154.089 38.3276 154.021 38.2244 153.974C38.1212 153.928 38.0094 153.903 37.8963 153.903C37.7832 153.903 37.6714 153.928 37.5682 153.974C37.465 154.021 37.3727 154.089 37.2974 154.174C37.1416 154.418 37.0588 154.703 37.0588 154.994C37.0588 155.285 37.1416 155.569 37.2974 155.814C37.3727 155.899 37.465 155.967 37.5682 156.014C37.6714 156.06 37.7832 156.084 37.8963 156.084C38.0094 156.084 38.1212 156.06 38.2244 156.014C38.3276 155.967 38.4199 155.899 38.4952 155.814C38.6194 155.603 38.6816 155.36 38.6748 155.115L38.7227 154.994ZM40.0522 153.559L40.5553 153.45C40.7904 153.43 41.0268 153.43 41.2619 153.45C41.4669 153.443 41.671 153.48 41.8608 153.559C42.0123 153.612 42.1453 153.708 42.2441 153.836C42.3416 153.969 42.4109 154.121 42.4477 154.282C42.4873 154.469 42.5073 154.659 42.5076 154.849V156.574H41.9686V154.97C41.9894 154.81 41.9894 154.647 41.9686 154.487C41.9529 154.371 41.9121 154.26 41.8488 154.162C41.7869 154.083 41.7036 154.025 41.6093 153.993C41.491 153.965 41.3682 153.965 41.25 153.993H41.0703H40.8906H40.7469H40.6511V156.574H40.1001V153.607L40.0522 153.559ZM44.4239 156.128H44.7713C44.8546 156.141 44.9395 156.141 45.0228 156.128V155.223C44.9593 155.213 44.8947 155.213 44.8312 155.223H44.5078H44.2562C44.169 155.233 44.0839 155.257 44.0047 155.296C43.9297 155.327 43.8638 155.376 43.8131 155.44C43.7627 155.519 43.7376 155.612 43.7412 155.706C43.7322 155.782 43.7442 155.86 43.7759 155.93C43.8076 156 43.8577 156.06 43.9209 156.104C44.0737 156.191 44.2483 156.233 44.4239 156.224V156.128ZM44.4239 153.39C44.6112 153.383 44.798 153.412 44.9749 153.474C45.1091 153.53 45.2312 153.612 45.3342 153.715C45.4237 153.825 45.489 153.952 45.5258 154.089C45.5649 154.243 45.5851 154.401 45.5857 154.56V156.466H45.3941H45.1067H44.7713H44.4C44.2448 156.485 44.088 156.485 43.9329 156.466C43.8002 156.445 43.6744 156.393 43.566 156.313C43.4576 156.233 43.3699 156.128 43.3101 156.007C43.2491 155.862 43.2205 155.706 43.2262 155.549C43.2241 155.399 43.2569 155.25 43.322 155.115C43.3915 154.999 43.4856 154.9 43.5975 154.825C43.7277 154.747 43.8691 154.69 44.0167 154.656C44.1759 154.638 44.3366 154.638 44.4958 154.656H44.6755H44.8432H44.9749H45.0587V154.717C45.0704 154.628 45.0704 154.539 45.0587 154.451C45.0478 154.365 45.01 154.285 44.951 154.222C44.8973 154.15 44.8275 154.092 44.7473 154.053C44.6405 154.011 44.5266 153.991 44.412 153.993C44.2566 153.979 44.1003 153.979 43.9449 153.993C43.8376 154.006 43.7327 154.034 43.6334 154.077L43.5735 153.619C43.6867 153.581 43.8029 153.553 43.9209 153.534C44.1 153.515 44.2807 153.515 44.4599 153.534L44.4239 153.39ZM47.3943 156.574C47.1358 156.599 46.8779 156.521 46.6757 156.357C46.5266 156.179 46.4534 155.95 46.4721 155.718V152.099L47.0111 152.002V155.621C47.0031 155.693 47.0031 155.766 47.0111 155.838C47.0242 155.894 47.0534 155.944 47.0949 155.983C47.1298 156.023 47.1756 156.053 47.2266 156.068H47.4422L47.3943 156.574ZM49.4544 156.574V152.497H51.9217V152.992H50.0173V154.198H51.7181V154.717H50.0173V156.128H52.0655V156.622L49.4544 156.574ZM15.3071 153.607L15.7982 153.498C16.0333 153.478 16.2697 153.478 16.5048 153.498C16.7137 153.491 16.9217 153.528 17.1156 153.607C17.2622 153.663 17.3905 153.759 17.4869 153.884C17.5845 154.017 17.6538 154.169 17.6906 154.331C17.7301 154.517 17.7502 154.707 17.7504 154.897V156.622H17.2115V155.018C17.2257 154.858 17.2257 154.696 17.2115 154.536C17.1918 154.419 17.1468 154.307 17.0797 154.21C17.0201 154.134 16.9416 154.076 16.8521 154.041C16.7339 154.014 16.6111 154.014 16.4928 154.041H16.3132H16.1335H15.9778H15.882V156.622H15.343V153.655L15.3071 153.607ZM19.1518 153.51H20.3495V153.969H19.1518V155.38C19.1377 155.508 19.1377 155.638 19.1518 155.766C19.1705 155.849 19.2073 155.928 19.2596 155.995C19.3063 156.052 19.3688 156.094 19.4392 156.116C19.5185 156.129 19.5995 156.129 19.6788 156.116C19.813 156.118 19.9466 156.098 20.074 156.055L20.2777 155.983L20.3855 156.429C20.2941 156.477 20.1977 156.513 20.098 156.538C19.943 156.559 19.7859 156.559 19.6309 156.538C19.4591 156.547 19.2876 156.518 19.1279 156.454C19.0009 156.409 18.8888 156.33 18.8044 156.224C18.7165 156.106 18.6552 155.971 18.6248 155.826C18.6108 155.65 18.6108 155.472 18.6248 155.296V152.569L19.1638 152.473L19.1518 153.51Z" fill="#656262"/>
<path d="M50.9416 165.094V159.761H52.0038L53.2661 163.537C53.3825 163.889 53.4674 164.152 53.5207 164.326C53.5814 164.132 53.6759 163.847 53.8045 163.472L55.0813 159.761H56.0307V165.094H55.3505V160.631L53.8008 165.094H53.1642L51.6219 160.554V165.094H50.9416Z" fill="#656262"/>
<path d="M58.151 165.094L60.199 159.761H60.9593L63.1419 165.094H62.3379L61.7159 163.479H59.486L58.9003 165.094H58.151ZM59.6897 162.904H61.4976L60.9411 161.427C60.7713 160.979 60.6452 160.61 60.5627 160.321C60.4948 160.663 60.399 161.003 60.2754 161.34L59.6897 162.904Z" fill="#656262"/>
<path d="M66.156 165.094V162.835L64.1007 159.761H64.9592L66.0105 161.369C66.2045 161.67 66.3852 161.97 66.5525 162.271C66.7125 161.992 66.9066 161.678 67.1345 161.329L68.1676 159.761H68.9897L66.8617 162.835V165.094H66.156Z" fill="#656262"/>
<path d="M74.2563 165.094H73.6015V160.922C73.4439 161.072 73.2365 161.222 72.9794 161.373C72.7248 161.523 72.4956 161.636 72.2919 161.711V161.078C72.6581 160.906 72.9782 160.697 73.2523 160.452C73.5263 160.207 73.7203 159.97 73.8343 159.739H74.2563V165.094Z" fill="#656262"/>
<path d="M76.9187 163.861L77.548 163.803C77.6013 164.098 77.7032 164.313 77.8535 164.446C78.0039 164.58 78.1967 164.647 78.4319 164.647C78.6332 164.647 78.809 164.6 78.9594 164.508C79.1122 164.416 79.2371 164.294 79.3341 164.141C79.4311 163.986 79.5123 163.777 79.5778 163.515C79.6433 163.253 79.676 162.987 79.676 162.715C79.676 162.686 79.6748 162.642 79.6724 162.584C79.5414 162.793 79.362 162.962 79.134 163.093C78.9085 163.222 78.6635 163.286 78.3992 163.286C77.9578 163.286 77.5844 163.126 77.2788 162.806C76.9732 162.486 76.8204 162.064 76.8204 161.54C76.8204 160.999 76.9793 160.564 77.297 160.234C77.6171 159.904 78.0172 159.739 78.4974 159.739C78.8442 159.739 79.1607 159.833 79.4469 160.019C79.7354 160.206 79.9537 160.473 80.1016 160.82C80.252 161.164 80.3272 161.664 80.3272 162.318C80.3272 163 80.2532 163.543 80.1053 163.948C79.9573 164.351 79.7367 164.657 79.4432 164.868C79.1522 165.079 78.8103 165.185 78.4174 165.185C78.0003 165.185 77.6595 165.07 77.3952 164.839C77.1309 164.607 76.972 164.28 76.9187 163.861ZM79.5996 161.507C79.5996 161.131 79.499 160.833 79.2977 160.612C79.0988 160.392 78.8588 160.281 78.5774 160.281C78.2864 160.281 78.033 160.4 77.8172 160.638C77.6013 160.875 77.4934 161.183 77.4934 161.562C77.4934 161.901 77.5953 162.178 77.799 162.391C78.0051 162.602 78.2585 162.708 78.5593 162.708C78.8624 162.708 79.111 162.602 79.305 162.391C79.5014 162.178 79.5996 161.883 79.5996 161.507Z" fill="#656262"/>
<path d="M81.7782 163.493V162.835H83.7898V163.493H81.7782Z" fill="#656262"/>
<path d="M87.9631 164.465V165.094H84.4382C84.4333 164.936 84.4588 164.785 84.5146 164.639C84.6043 164.399 84.7474 164.163 84.9438 163.93C85.1427 163.697 85.4288 163.428 85.8023 163.122C86.3819 162.647 86.7736 162.271 86.9773 161.995C87.181 161.716 87.2829 161.453 87.2829 161.205C87.2829 160.946 87.1895 160.728 87.0028 160.551C86.8184 160.371 86.5771 160.281 86.2789 160.281C85.9636 160.281 85.7114 160.376 85.5222 160.565C85.3331 160.754 85.2373 161.016 85.2348 161.351L84.5619 161.282C84.6079 160.78 84.7813 160.398 85.0821 160.136C85.3828 159.871 85.7866 159.739 86.2934 159.739C86.8051 159.739 87.2101 159.881 87.5084 160.165C87.8067 160.449 87.9558 160.8 87.9558 161.22C87.9558 161.433 87.9122 161.643 87.8249 161.849C87.7376 162.055 87.5921 162.272 87.3884 162.5C87.1871 162.728 86.8512 163.041 86.3807 163.439C85.9878 163.769 85.7356 163.993 85.6241 164.112C85.5125 164.228 85.4204 164.346 85.3476 164.465H87.9631Z" fill="#656262"/>
<path d="M92.0307 165.094H91.3759V160.922C91.2183 161.072 91.0109 161.222 90.7539 161.373C90.4992 161.523 90.27 161.636 90.0663 161.711V161.078C90.4325 160.906 90.7526 160.697 91.0267 160.452C91.3007 160.207 91.4947 159.97 91.6087 159.739H92.0307V165.094Z" fill="#656262"/>
<path d="M94.9477 165.094V164.348H95.6934V165.094C95.6934 165.368 95.6449 165.589 95.5479 165.756C95.4509 165.926 95.2969 166.057 95.0859 166.149L94.9041 165.869C95.0423 165.808 95.1441 165.718 95.2096 165.6C95.2751 165.483 95.3115 165.315 95.3187 165.094H94.9477Z" fill="#656262"/>
<path d="M102.288 164.465V165.094H98.7631C98.7583 164.936 98.7837 164.785 98.8395 164.639C98.9293 164.399 99.0723 164.163 99.2688 163.93C99.4676 163.697 99.7538 163.428 100.127 163.122C100.707 162.647 101.099 162.271 101.302 161.995C101.506 161.716 101.608 161.453 101.608 161.205C101.608 160.946 101.514 160.728 101.328 160.551C101.143 160.371 100.902 160.281 100.604 160.281C100.289 160.281 100.036 160.376 99.8472 160.565C99.658 160.754 99.5622 161.016 99.5598 161.351L98.8868 161.282C98.9329 160.78 99.1063 160.398 99.407 160.136C99.7077 159.871 100.112 159.739 100.618 159.739C101.13 159.739 101.535 159.881 101.833 160.165C102.132 160.449 102.281 160.8 102.281 161.22C102.281 161.433 102.237 161.643 102.15 161.849C102.063 162.055 101.917 162.272 101.713 162.5C101.512 162.728 101.176 163.041 100.706 163.439C100.313 163.769 100.061 163.993 99.949 164.112C99.8375 164.228 99.7453 164.346 99.6726 164.465H102.288Z" fill="#656262"/>
<path d="M103.889 162.464C103.889 161.833 103.954 161.327 104.082 160.943C104.213 160.558 104.406 160.261 104.66 160.052C104.918 159.844 105.24 159.739 105.628 159.739C105.914 159.739 106.165 159.798 106.381 159.914C106.597 160.028 106.775 160.194 106.916 160.412C107.057 160.628 107.167 160.892 107.247 161.205C107.327 161.516 107.367 161.935 107.367 162.464C107.367 163.09 107.303 163.595 107.174 163.981C107.046 164.364 106.853 164.661 106.596 164.872C106.341 165.081 106.019 165.185 105.628 165.185C105.114 165.185 104.71 165.001 104.417 164.632C104.065 164.188 103.889 163.466 103.889 162.464ZM104.562 162.464C104.562 163.339 104.664 163.923 104.868 164.214C105.074 164.502 105.327 164.647 105.628 164.647C105.929 164.647 106.181 164.501 106.385 164.21C106.591 163.919 106.694 163.337 106.694 162.464C106.694 161.586 106.591 161.003 106.385 160.714C106.181 160.426 105.926 160.281 105.621 160.281C105.32 160.281 105.08 160.409 104.901 160.663C104.675 160.988 104.562 161.588 104.562 162.464Z" fill="#656262"/>
<path d="M112.361 164.465V165.094H108.836C108.831 164.936 108.857 164.785 108.912 164.639C109.002 164.399 109.145 164.163 109.342 163.93C109.54 163.697 109.827 163.428 110.2 163.122C110.78 162.647 111.171 162.271 111.375 161.995C111.579 161.716 111.681 161.453 111.681 161.205C111.681 160.946 111.587 160.728 111.4 160.551C111.216 160.371 110.975 160.281 110.677 160.281C110.361 160.281 110.109 160.376 109.92 160.565C109.731 160.754 109.635 161.016 109.633 161.351L108.96 161.282C109.006 160.78 109.179 160.398 109.48 160.136C109.78 159.871 110.184 159.739 110.691 159.739C111.203 159.739 111.608 159.881 111.906 160.165C112.204 160.449 112.354 160.8 112.354 161.22C112.354 161.433 112.31 161.643 112.223 161.849C112.135 162.055 111.99 162.272 111.786 162.5C111.585 162.728 111.249 163.041 110.778 163.439C110.386 163.769 110.133 163.993 110.022 164.112C109.91 164.228 109.818 164.346 109.745 164.465H112.361Z" fill="#656262"/>
<path d="M117.391 164.465V165.094H113.866C113.862 164.936 113.887 164.785 113.943 164.639C114.033 164.399 114.176 164.163 114.372 163.93C114.571 163.697 114.857 163.428 115.231 163.122C115.81 162.647 116.202 162.271 116.406 161.995C116.609 161.716 116.711 161.453 116.711 161.205C116.711 160.946 116.618 160.728 116.431 160.551C116.247 160.371 116.005 160.281 115.707 160.281C115.392 160.281 115.14 160.376 114.95 160.565C114.761 160.754 114.665 161.016 114.663 161.351L113.99 161.282C114.036 160.78 114.21 160.398 114.51 160.136C114.811 159.871 115.215 159.739 115.722 159.739C116.233 159.739 116.638 159.881 116.937 160.165C117.235 160.449 117.384 160.8 117.384 161.22C117.384 161.433 117.34 161.643 117.253 161.849C117.166 162.055 117.02 162.272 116.817 162.5C116.615 162.728 116.279 163.041 115.809 163.439C115.416 163.769 115.164 163.993 115.052 164.112C114.941 164.228 114.849 164.346 114.776 164.465H117.391Z" fill="#656262"/>
<path d="M132.805 135.754L132.589 134.668C133.533 134.165 134.587 133.904 135.655 133.908C136.463 133.867 137.267 134.05 137.979 134.439C138.497 134.7 138.917 135.124 139.176 135.645C139.371 136.124 139.473 136.636 139.476 137.153C139.469 137.991 139.272 138.816 138.901 139.566C138.579 140.292 138.178 140.98 137.703 141.617C137.26 142.183 136.589 142.992 135.703 144.029C135.078 144.791 134.397 145.504 133.667 146.164H134.865H139.859V147.25H132.266V146.044C133.727 144.403 134.841 143.124 135.595 142.196C136.291 141.365 136.905 140.468 137.428 139.518C137.856 138.784 138.098 137.955 138.134 137.105C138.134 135.621 137.308 134.886 135.655 134.886C134.653 134.867 133.666 135.13 132.805 135.645V135.754ZM143.045 140.712C143.034 141.685 143.106 142.658 143.261 143.619C143.374 144.359 143.675 145.057 144.135 145.645C144.362 145.91 144.647 146.118 144.967 146.254C145.286 146.39 145.633 146.45 145.98 146.43C146.493 146.478 147.007 146.352 147.441 146.072C147.875 145.793 148.204 145.375 148.375 144.886C149.173 142.157 149.173 139.255 148.375 136.526C148.203 136.038 147.874 135.621 147.44 135.344C147.006 135.066 146.491 134.943 145.98 134.994C145.634 134.972 145.288 135.03 144.968 135.164C144.648 135.298 144.363 135.504 144.135 135.766C143.675 136.354 143.374 137.053 143.261 137.793C143.106 138.758 143.034 139.734 143.045 140.712ZM0 134.065H1.19773V140.241L1.6289 139.771L6.99475 134.114H8.50387L2.39546 140.398L9.18658 147.407H7.52176L1.5331 141.038L1.23366 140.688V147.395H0.0359305L0 134.065ZM15.5106 135.272L15.1154 136.478L12.8277 142.509H18.4571L16.0616 136.478L15.5106 135.272ZM14.7201 134.065H16.2652L21.5711 147.334H20.2896L18.8284 143.715H12.4085L11.0072 147.334H9.72558L14.7201 134.065ZM22.8048 134.065H30.6859V135.332L24.817 144.982L24.0025 146.249H25.2003H30.9254V147.334H22.6251V146.128L28.6138 136.369L29.4043 135.091H22.7569L22.8048 134.065ZM37.8124 135.272L37.4171 136.478L35.1415 142.509H40.7588L38.3634 136.478L37.8124 135.272ZM37.0219 134.065H38.567L43.8729 147.334H42.5914L41.1421 143.715H34.7103L33.3089 147.334H32.0633L37.0219 134.065ZM45.8611 134.065H47.3942L53.5147 144.813L54.0656 146.019V144.475V134.053H55.2633V147.322H53.7302L47.7416 136.779L47.0349 135.416H46.9751L47.0469 136.948V147.383H45.8492L45.8611 134.065ZM57.8385 146.924L57.9702 145.718C58.8368 146.175 59.7953 146.426 60.7729 146.454C61.2356 146.453 61.6942 146.367 62.1264 146.2C62.5572 146.05 62.9384 145.783 63.2283 145.428C63.5239 145.066 63.6773 144.607 63.6595 144.138C63.6788 143.66 63.5624 143.188 63.3241 142.775C63.0968 142.413 62.7994 142.101 62.4497 141.858C62.0904 141.617 61.5514 141.291 60.8208 140.881C60.3192 140.612 59.8315 140.318 59.3596 140C58.9644 139.717 58.6303 139.356 58.3774 138.939C58.0659 138.428 57.9117 137.836 57.9343 137.238C57.9244 136.66 58.0561 136.088 58.3176 135.573C58.5967 135.045 59.0378 134.622 59.5752 134.367C60.2775 134.046 61.0441 133.893 61.8149 133.921C62.7451 133.92 63.6687 134.079 64.5458 134.391L64.3781 135.597C63.5758 135.22 62.7004 135.026 61.8149 135.03C61.4492 134.989 61.0788 135.025 60.728 135.138C60.3772 135.25 60.0538 135.435 59.7788 135.682C59.398 136.113 59.1927 136.673 59.2039 137.25C59.1898 137.63 59.2945 138.006 59.5033 138.323C59.7052 138.619 59.9613 138.873 60.2579 139.071C60.5693 139.288 61.0963 139.602 61.8269 140.024C62.4413 140.384 63.0297 140.787 63.5876 141.231C63.9982 141.556 64.3333 141.968 64.5697 142.437C64.8356 142.993 64.963 143.605 64.941 144.222C64.9446 144.803 64.7914 145.374 64.4978 145.875C64.167 146.405 63.6877 146.825 63.1205 147.081C62.3693 147.424 61.549 147.585 60.725 147.551C59.7183 147.545 58.7222 147.345 57.7906 146.96L57.8385 146.924ZM68.7258 134.065V142.895C68.7025 143.596 68.8725 144.289 69.2169 144.898C69.4974 145.425 69.9381 145.847 70.4745 146.104C70.9955 146.35 71.5639 146.478 72.1394 146.478C72.7149 146.478 73.2833 146.35 73.8042 146.104C74.3418 145.845 74.7856 145.423 75.0738 144.898C75.4141 144.287 75.5799 143.594 75.5529 142.895V134.065H76.7507V142.931C76.7773 143.808 76.5661 144.676 76.1398 145.44C75.7512 146.11 75.1767 146.651 74.487 146.997C73.755 147.338 72.958 147.515 72.1514 147.515C71.3447 147.515 70.5477 147.338 69.8158 146.997C69.126 146.651 68.5516 146.11 68.1629 145.44C67.7367 144.676 67.5255 143.808 67.5521 142.931V134.065H68.7258ZM86.8356 146.128H86.9074L87.4225 144.355L91.6025 134.029H93.471V147.298H92.2733V137.009V135.199L91.6504 136.948L87.4823 147.298H86.2846L82.1165 136.948L81.5057 135.199H81.4338V137.009V147.298H80.2361V134.029H82.1045L86.2846 144.355L86.8356 146.128ZM103.604 146.128H103.676L104.191 144.355L108.383 134.029H110.239V147.298H109.042V137.009V135.199H108.97L108.347 136.948L104.191 147.298H102.993L98.8249 136.948L98.214 135.199H98.1422V137.009V147.298H96.9444V134.029H98.8129L102.993 144.355L103.604 146.128ZM113.749 134.065H114.946V147.334H113.749V134.065ZM116.911 134.065H125.63V135.139H121.893V147.358H120.695V135.139H116.923L116.911 134.065ZM152.34 135.754L152.124 134.668C153.068 134.163 154.121 133.902 155.19 133.908C155.998 133.867 156.802 134.05 157.514 134.439C158.01 134.711 158.408 135.133 158.652 135.645C158.846 136.124 158.948 136.636 158.951 137.153C158.944 137.991 158.747 138.816 158.376 139.566C158.054 140.292 157.653 140.98 157.178 141.617C156.735 142.183 156.064 142.992 155.178 144.029C154.553 144.791 153.872 145.504 153.142 146.164H154.34H159.478V147.25H151.836V146.044C153.298 144.403 154.412 143.124 155.166 142.196C155.862 141.365 156.476 140.468 156.999 139.518C157.427 138.784 157.669 137.955 157.705 137.105C157.705 135.621 156.879 134.886 155.226 134.886C154.224 134.867 153.237 135.13 152.375 135.645L152.34 135.754ZM141.776 140.712C141.775 140.019 141.811 139.326 141.883 138.637C141.965 137.902 142.138 137.181 142.398 136.49C142.662 135.771 143.108 135.135 143.692 134.644C144.367 134.165 145.172 133.908 145.998 133.908C146.823 133.908 147.628 134.165 148.303 134.644C148.884 135.13 149.327 135.763 149.585 136.478C149.846 137.169 150.023 137.89 150.112 138.625C150.184 139.318 150.22 140.015 150.22 140.712C150.22 145.247 148.81 147.515 145.992 147.515C143.173 147.515 141.764 145.247 141.764 140.712H141.776ZM161.957 135.754L161.742 134.668C162.686 134.163 163.739 133.902 164.808 133.908C165.616 133.867 166.42 134.05 167.132 134.439C167.65 134.7 168.07 135.124 168.329 135.645C168.52 136.125 168.617 136.637 168.617 137.153C168.614 137.99 168.421 138.815 168.054 139.566C167.732 140.292 167.33 140.98 166.856 141.617C166.413 142.183 165.742 142.992 164.856 144.029C164.231 144.791 163.55 145.504 162.82 146.164H164.017H169.156V147.25H161.418V146.044C162.88 144.403 163.993 143.124 164.748 142.196C165.444 141.365 166.058 140.468 166.581 139.518C167.009 138.784 167.251 137.955 167.287 137.105C167.287 135.621 166.461 134.886 164.808 134.886C163.806 134.867 162.819 135.13 161.957 135.645" fill="#277B76"/>
</g>
<defs>
<clipPath id="clip0_927_9774">
<rect width="169" height="170" fill="white"/>
</clipPath>
</defs>
</svg>
