<svg width="38" height="32" viewBox="0 0 38 32" fill="none" xmlns="http://www.w3.org/2000/svg">
<path d="M29.0345 2.99104C28.933 2.89334 28.8067 2.82268 28.6704 2.78169L20.4594 0.323482C17.1759 -0.659625 15.0397 1.05536 14.4642 1.60579C14.1285 1.92594 13.8714 2.26353 13.7396 2.5575L10.082 10.7608C9.87247 11.2301 9.94383 11.8556 10.2723 12.4793C10.7425 13.3699 11.5897 14.012 12.6025 14.2431C13.736 14.5022 14.9116 14.1507 15.832 13.274C16.0726 13.0446 16.2775 12.7916 16.3983 12.577L17.6279 10.4023C17.83 10.042 18.1237 9.66867 18.4329 9.37382C19.4878 8.36716 19.9891 8.82775 20.2023 9.02315C22.0421 10.7163 31.6876 19.9525 31.6876 19.9525C32.0307 20.2796 31.9594 20.8998 31.5303 21.3081C31.1021 21.7154 30.4507 21.7852 30.1086 21.4598L27.3987 18.8769C27.0492 18.5428 26.4857 18.5428 26.1362 18.8769C25.7867 19.2075 25.7867 19.7475 26.1362 20.0798L28.846 22.6645C29.1882 22.9899 29.1168 23.6101 28.6887 24.0175C28.2605 24.4266 27.6082 24.4946 27.2679 24.1693L24.5571 21.5863C24.2076 21.2531 23.6422 21.2531 23.2946 21.5863C22.9451 21.9169 22.9451 22.4569 23.2946 22.7901L26.0044 25.3739C26.3466 25.7002 26.2725 26.3204 25.8453 26.7287C25.418 27.136 24.7675 27.2058 24.4245 26.8787L21.7146 24.2958C21.3669 23.9634 20.8006 23.9634 20.4521 24.2958C20.1044 24.6281 20.1044 25.1681 20.4521 25.4987L23.1619 28.0834C23.505 28.4105 23.4318 29.0307 23.0046 29.439C22.5746 29.8472 21.9241 29.9161 21.5829 29.5899L18.2838 26.4417C18.755 25.7665 18.6269 24.7869 17.9279 24.1178C17.1448 23.372 15.9399 23.3031 15.2428 23.9695C15.9399 23.3039 15.8713 22.1568 15.0863 21.4092C14.3014 20.6625 13.0992 20.5936 12.4021 21.2583C13.0992 20.5936 13.0288 19.4474 12.2429 18.7007C11.4598 17.9522 10.2576 17.8842 9.55866 18.5489C10.2576 17.8842 10.1854 16.738 9.40131 15.9886C8.66758 15.289 7.5743 15.194 6.86344 15.7269L1.52149 10.6335C1.17293 10.3002 0.606621 10.3002 0.258054 10.6335C-0.0895986 10.9649 -0.0895986 11.5049 0.258054 11.8381L5.58628 16.9177L4.00629 18.4242C3.30916 19.088 3.3796 20.2342 4.16548 20.9836C4.94861 21.7303 6.15076 21.7992 6.84881 21.1336C6.15076 21.7992 6.22212 22.9445 7.00708 23.693C7.79021 24.4388 8.99327 24.5095 9.69132 23.8439C8.99327 24.5095 9.06372 25.6548 9.84868 26.4024C10.6336 27.1509 11.8358 27.2189 12.5329 26.5542C11.8358 27.218 11.9062 28.3634 12.6912 29.1127C13.4752 29.8594 14.6765 29.9283 15.3754 29.2628L17.0442 27.6725L20.3203 30.7954C21.366 31.7925 23.1345 31.7227 24.2671 30.6445C24.8188 30.1185 25.1134 29.4468 25.1545 28.7821C25.8517 28.7429 26.557 28.4611 27.1078 27.9342C27.6604 27.4082 27.9568 26.7365 27.9989 26.0718C28.6951 26.0325 29.3977 25.7517 29.9521 25.2248C30.5038 24.6979 30.7993 24.0271 30.8396 23.3615C31.5376 23.3231 32.2421 23.0422 32.7946 22.5136C33.9254 21.4354 33.995 19.7466 32.952 18.7513L31.5705 17.4332L37.2428 12.0257C37.5913 11.6942 37.5913 11.1542 37.2428 10.8219L29.0345 2.99104Z" fill="black"/>
</svg>
