<svg width="43" height="40" viewBox="0 0 43 40" fill="none" xmlns="http://www.w3.org/2000/svg">
<path d="M38.5191 0.3125H4.4809C2.01042 0.3125 0 2.27526 0 4.68747C0 7.09968 2.01042 9.06245 4.4809 9.06245H5.26305V26.4608C5.26305 28.3864 6.98296 30.0624 8.96012 30.0624H16.125H17.9166H20.4922V33.9657L16.3314 38.0844C15.9815 38.4263 16.0095 38.98 16.3594 39.3217C16.7094 39.6635 17.2343 39.6635 17.5841 39.3217L20.4922 36.4405V39.6875H22.2838V36.4405L25.2898 39.3218C25.4647 39.4927 25.722 39.5782 25.9512 39.5782C26.1804 39.5782 26.4236 39.4927 26.5985 39.3218C26.9485 38.98 26.8994 38.4263 26.5496 38.0845L22.2838 33.9658V30.0625H34.0399C36.017 30.0625 37.513 28.3865 37.513 26.4609V9.06253H38.519C40.9896 9.06253 42.9999 7.09977 42.9999 4.68755C42.9999 2.27534 40.9896 0.3125 38.5191 0.3125ZM35.7213 26.4609C35.7213 27.4217 35.0285 28.3126 34.0399 28.3126H31.2422V12.5626H29.4505V28.3126H26.763V15.1876H24.9714V28.3126H22.2839V16.9375H20.4922V28.3126H17.8047V18.6875H16.013V28.3125H13.3255V20.4375H11.5339V28.3125H8.96012C7.97154 28.3125 7.05469 27.4217 7.05469 26.4609V9.06253H35.7213V26.4609ZM38.5191 7.31247H36.7291H6.27086H4.4809C2.99807 7.31247 1.79164 6.135 1.79164 4.68747C1.79164 3.23995 2.99807 2.06247 4.4809 2.06247H38.5191C40.0019 2.06247 41.2084 3.23995 41.2084 4.68747C41.2084 6.135 40.0019 7.31247 38.5191 7.31247Z" fill="black"/>
</svg>
