<svg width="71" height="58" viewBox="0 0 71 58" fill="none" xmlns="http://www.w3.org/2000/svg">
<path d="M67.3281 35.9139C67.2188 35.4719 67.2188 34.9193 67.5469 34.5878C69.4062 31.1622 70.5 27.2945 70.5 23.2059C70.5 10.3874 59.672 0 46.4378 0C40.7504 0 35.5004 1.98908 31.3442 5.1937C45.0159 8.17731 55.1877 20.1118 55.1877 34.2563C55.1877 38.2345 54.4221 42.1021 52.8908 45.5277C55.0783 44.9752 57.1564 44.0912 59.1251 42.8756C59.5626 42.6546 60.0001 42.5441 60.4376 42.7651L67.4375 45.3067C68.6406 45.7488 69.8437 44.5332 69.5156 43.2072L67.3281 35.9139Z" fill="#3B8992"/>
<path d="M24.5622 11.0503C11.328 11.0503 0.5 21.4377 0.5 34.2562C0.5 38.3448 1.59373 42.2125 3.56246 45.6381C3.78121 46.0801 3.89058 46.5222 3.78121 46.9642L1.48436 54.368C1.04687 55.694 2.24998 56.9096 3.56246 56.4675L10.5624 53.9259C10.9999 53.8154 11.5467 53.8154 11.8748 54.0364C15.5936 56.2465 19.8591 57.4621 24.5622 57.4621C37.7964 57.4621 48.6244 47.0747 48.6244 34.2562C48.6244 21.4377 37.7964 11.0503 24.5622 11.0503ZM11.4374 38.6764C9.03114 38.6764 7.06241 36.6873 7.06241 34.2562C7.06241 31.8251 9.03114 29.836 11.4374 29.836C13.8436 29.836 15.8123 31.8251 15.8123 34.2562C15.8123 36.6873 13.8436 38.6764 11.4374 38.6764ZM24.5622 38.6764C22.156 38.6764 20.1872 36.6873 20.1872 34.2562C20.1872 31.8251 22.156 29.836 24.5622 29.836C26.9684 29.836 28.9371 31.8251 28.9371 34.2562C28.9371 36.6873 26.9684 38.6764 24.5622 38.6764ZM37.687 38.6764C35.2808 38.6764 33.3121 36.6873 33.3121 34.2562C33.3121 31.8251 35.2808 29.836 37.687 29.836C40.0932 29.836 42.062 31.8251 42.062 34.2562C42.062 36.6873 40.0932 38.6764 37.687 38.6764Z" fill="#3B8992"/>
</svg>
