<svg width="35" height="35" viewBox="0 0 35 35" fill="none" xmlns="http://www.w3.org/2000/svg">
<path d="M35 7.01991V4.0825C35 2.26738 33.5233 0.790692 31.7082 0.790692H26.0499C25.5385 0.477458 24.9376 0.296631 24.2953 0.296631H3.36978C1.51174 0.296527 0 1.80826 0 3.66631V31.3336C0 33.1917 1.51174 34.7033 3.36978 34.7033H24.2952C24.9376 34.7033 25.5386 34.5224 26.0501 34.2091H31.7081C33.5232 34.2091 34.9999 32.7324 34.9999 30.9173V27.9798C34.9999 26.9725 34.5446 26.07 33.8296 25.4657C34.5446 24.8614 34.9999 23.9588 34.9999 22.9515V20.014C34.9999 19.0067 34.5446 18.1041 33.8296 17.4998C34.5446 16.8955 34.9999 15.993 34.9999 14.9857V12.0482C34.9999 11.0409 34.5446 10.1384 33.8296 9.53408C34.5447 8.9297 35 8.02711 35 7.01991ZM26.1097 31.3336C26.1097 32.334 25.2957 33.148 24.2952 33.148H3.36978C2.36932 33.148 1.55528 32.334 1.55528 31.3336V3.66631C1.55528 2.66585 2.36932 1.85181 3.36978 1.85181H24.2952C25.2957 1.85181 26.1097 2.66585 26.1097 3.66631V31.3336ZM33.4447 30.9174C33.4447 31.8749 32.6657 32.6539 31.7082 32.6539H27.3954C27.5689 32.2483 27.6651 31.802 27.6651 31.3337V26.2434H31.7082C32.6657 26.2434 33.4447 27.0224 33.4447 27.9799V30.9174ZM33.4447 22.9515C33.4447 23.909 32.6657 24.688 31.7082 24.688H27.6651V18.2775H31.7082C32.6657 18.2775 33.4447 19.0565 33.4447 20.014V22.9515ZM33.4447 14.9857C33.4447 15.9432 32.6657 16.7222 31.7082 16.7222H27.6651V10.3116H31.7082C32.6657 10.3116 33.4447 11.0906 33.4447 12.0481V14.9857ZM33.4447 7.01991C33.4447 7.97745 32.6657 8.75644 31.7082 8.75644H27.6651V3.66631C27.6651 3.19786 27.5688 2.75159 27.3953 2.34587H31.7082C32.6657 2.34587 33.4447 3.12486 33.4447 4.0824V7.01991Z" fill="black"/>
<path d="M23.4748 23.8501H4.19019V25.4054H23.4748V23.8501Z" fill="black"/>
<path d="M6.93573 21.3801H20.7295C20.9642 21.3801 21.1863 21.2743 21.3339 21.0919C21.4816 20.9095 21.539 20.6703 21.4902 20.4409C21.1174 18.6878 20.1349 17.1047 18.7452 15.9803C19.6558 14.8586 20.1646 13.4464 20.1646 11.9861C20.1646 8.49462 17.324 5.65405 13.8325 5.65405C10.341 5.65405 7.5004 8.49462 7.5004 11.9861C7.5004 13.4464 8.00929 14.8586 8.91975 15.9803C7.53016 17.1047 6.54764 18.6877 6.17499 20.4409C6.12615 20.6703 6.1836 20.9096 6.33124 21.0919C6.479 21.2743 6.70109 21.3801 6.93573 21.3801ZM10.5079 16.754C10.714 16.6249 10.8479 16.4067 10.8696 16.1643C10.8912 15.922 10.7983 15.6836 10.6184 15.5198C9.62523 14.6159 9.05568 13.3279 9.05568 11.9861C9.05568 9.35221 11.1986 7.20934 13.8325 7.20934C16.4664 7.20934 18.6093 9.35221 18.6093 11.9861C18.6093 13.3279 18.0396 14.6159 17.0465 15.5198C16.8666 15.6836 16.7737 15.922 16.7954 16.1643C16.8171 16.4067 16.9509 16.6248 17.1571 16.754C18.3136 17.4787 19.2033 18.5675 19.6891 19.825H7.9759C8.46167 18.5675 9.3514 17.4785 10.5079 16.754Z" fill="black"/>
<path d="M21.0466 26.9258H6.61816V28.4811H21.0466V26.9258Z" fill="black"/>
</svg>
