<svg width="51" height="40" viewBox="0 0 51 40" fill="none" xmlns="http://www.w3.org/2000/svg">
<path d="M48.6172 0H2.38276C1.06891 0 0 1.04785 0 2.33604V26.5625V39.0625C0 39.4939 0.356801 39.8438 0.796875 39.8438H9.5625C9.78702 39.8438 10.0012 39.7509 10.1522 39.588C10.3032 39.425 10.3771 39.2072 10.3557 38.988C10.3403 38.8312 10.1787 37.2318 9.77457 35.1562H41.2253C40.8212 37.2319 40.6596 38.8312 40.6442 38.988C40.6228 39.2071 40.6967 39.425 40.8477 39.588C40.9987 39.7509 41.2129 39.8438 41.4374 39.8438H50.203C50.6431 39.8438 50.9999 39.4939 50.9999 39.0625V26.5625V2.33604C51 1.04785 49.9311 0 48.6172 0ZM49.4062 2.33604V25.7812H48.8169C48.3964 24.9519 47.4073 22.8418 46.4272 19.5897C45.2784 15.7776 43.916 9.59785 43.8322 1.5625H48.6172C49.0523 1.5625 49.4062 1.90957 49.4062 2.33604ZM9.53969 20.2375C11.6653 16.2877 14.1864 9.88359 14.3365 1.5625H18.3167C18.2645 3.50732 18.0163 5.43096 17.5769 7.31875C17.572 7.33174 17.5666 7.34434 17.5623 7.35772C17.545 7.4127 17.5347 7.46816 17.53 7.52334C17.2087 8.85908 16.7915 10.1765 16.2784 11.4702C15.1871 14.2222 13.6636 16.8757 11.7503 19.3572C9.91522 21.7372 8.06487 23.5046 6.78728 24.6024C7.60089 23.5002 8.569 22.0416 9.53969 20.2375ZM4.131 25.3881C4.64827 24.2401 5.36406 22.4677 6.08225 20.0952C7.26919 16.1738 8.67707 9.81768 8.76154 1.5625H12.7427C12.5936 9.53369 10.1888 15.6665 8.16119 19.4507C6.56745 22.4249 4.95905 24.4401 4.131 25.3881ZM19.6879 4.54189C21.3349 5.14229 23.3578 5.46875 25.5 5.46875C27.6423 5.46875 29.6651 5.14229 31.3121 4.54189C31.4165 5.38047 31.5561 6.21387 31.7304 7.04102C29.8049 7.54639 27.6676 7.8125 25.5 7.8125C23.3323 7.8125 21.1951 7.54648 19.2696 7.04102C19.4438 6.21377 19.5835 5.38047 19.6879 4.54189ZM31.1534 2.92314C29.6382 3.5501 27.6074 3.90625 25.5 3.90625C23.3926 3.90625 21.3619 3.5501 19.8466 2.92324C19.8783 2.4709 19.8998 2.01729 19.9113 1.5625H31.0887C31.1002 2.01719 31.1217 2.4708 31.1534 2.92314ZM18.9085 8.56406C20.9543 9.0956 23.2144 9.375 25.5 9.375C27.7855 9.375 30.0457 9.09551 32.0914 8.56397C32.2981 9.34375 32.5372 10.1171 32.8066 10.8834C30.4892 11.4379 28.0339 11.7188 25.5 11.7188C22.9663 11.7188 20.5109 11.4379 18.1934 10.8833C18.4628 10.1171 18.7019 9.34385 18.9085 8.56406ZM33.4621 7.48887C33.4563 7.44561 33.4476 7.40225 33.4341 7.35908C33.4328 7.35488 33.4309 7.35107 33.4296 7.34688C32.986 5.45 32.7358 3.51689 32.6833 1.5625H36.6635C36.8136 9.88359 39.3347 16.2877 41.4602 20.2375C42.431 22.0416 43.3991 23.5002 44.2126 24.6023C42.935 23.5045 41.0847 21.7371 39.2496 19.3571C37.3362 16.8756 35.8128 14.2221 34.7215 11.4701C34.2041 10.1654 33.7843 8.83633 33.4621 7.48887ZM38.2573 1.5625H42.2385C42.3229 9.81768 43.7308 16.1738 44.9178 20.0952C45.6365 22.4698 46.353 24.2435 46.8704 25.3912C46.0502 24.4538 44.4603 22.4641 42.8699 19.5084C40.8283 15.7145 38.4069 9.56348 38.2573 1.5625ZM2.38276 1.5625H7.16779C7.08402 9.59785 5.72146 15.7776 4.57277 19.5897C3.59281 22.8418 2.60359 24.9519 2.18314 25.7812H1.59375V2.33604C1.59375 1.90957 1.94766 1.5625 2.38276 1.5625ZM1.59375 27.3438H2.66555C2.66604 27.3438 2.66654 27.3438 2.66714 27.3438C2.66764 27.3438 2.66814 27.3438 2.66863 27.3438H2.88917C4.055 30.1502 4.57317 36.1017 4.72886 38.2812H1.59375V27.3438ZM6.32759 38.2812C6.18833 36.2548 5.71479 30.6166 4.58532 27.3438H5.21126C6.53816 28.9641 7.41851 31.8233 7.97154 34.3209C7.97024 34.3388 7.96875 34.3567 7.96875 34.375C7.96875 34.5081 8.00292 34.6333 8.06278 34.743C8.36759 36.19 8.56073 37.4794 8.66661 38.2812H6.32759ZM9.44048 33.5938C8.87609 31.1807 8.006 28.4865 6.71158 26.7032C7.89036 25.7923 10.4279 23.6527 12.9865 20.3451C14.9308 17.8315 16.4924 15.1449 17.6336 12.3562C20.1285 12.9695 22.7728 13.2812 25.5 13.2812C28.2274 13.2812 30.8717 12.9695 33.3663 12.3562C34.5076 15.1449 36.0692 17.8314 38.0135 20.3451C40.5721 23.6527 43.1096 25.7924 44.2884 26.7032C42.994 28.4864 42.1239 31.1807 41.5595 33.5938H9.44048ZM42.9373 34.7428C42.9971 34.6331 43.0312 34.508 43.0312 34.375C43.0312 34.3573 43.0298 34.34 43.0286 34.3227C43.0369 34.2849 43.0451 34.2474 43.0537 34.2095C43.7725 31.0229 44.7146 28.6615 45.7893 27.3438H46.4148C45.2853 30.6166 44.8117 36.2548 44.6725 38.2812H42.333C42.4385 37.4788 42.6316 36.1882 42.9373 34.7428ZM46.2711 38.2812C46.4267 36.102 46.9444 30.1514 48.1109 27.3438H49.4062V38.2812H46.2711Z" fill="black"/>
</svg>
