<svg width="46" height="46" viewBox="0 0 46 46" fill="none" xmlns="http://www.w3.org/2000/svg">
<rect x="5.5" y="5.5" width="35" height="35" rx="6.5" stroke="#BDBDBD"/>
<path d="M27.6154 14.6924C27.8578 14.45 28.1456 14.2577 28.4624 14.1265C28.7792 13.9953 29.1187 13.9277 29.4615 13.9277C29.8044 13.9277 30.1439 13.9953 30.4607 14.1265C30.7774 14.2577 31.0652 14.45 31.3077 14.6924C31.5501 14.9349 31.7424 15.2227 31.8737 15.5395C32.0049 15.8562 32.0724 16.1957 32.0724 16.5386C32.0724 16.8815 32.0049 17.221 31.8737 17.5377C31.7424 17.8545 31.5501 18.1423 31.3077 18.3847L18.8461 30.8463L13.7692 32.2309L15.1538 27.154L27.6154 14.6924Z" stroke="#3B8992" stroke-width="2" stroke-linecap="round" stroke-linejoin="round"/>
</svg>
