<svg width="33" height="33" viewBox="0 0 33 33" fill="none" xmlns="http://www.w3.org/2000/svg">
<path d="M31.4706 17.3687C32.1433 16.4799 32.5156 15.3908 32.5156 14.2577C32.5156 12.4599 31.5106 10.7583 29.8931 9.80935C29.4766 9.56509 29.0025 9.43654 28.5197 9.43699H18.9184L19.1586 4.51619C19.2146 3.32703 18.7942 2.19793 17.9774 1.33709C17.5766 0.912788 17.093 0.575199 16.5565 0.345183C16.02 0.115168 15.4421 -0.00238628 14.8584 -0.000214591C12.7764 -0.000214591 10.9346 1.40115 10.382 3.40711L6.94268 15.8593H1.76562C1.05693 15.8593 0.484375 16.4318 0.484375 17.1405V31.7147C0.484375 32.4234 1.05693 32.996 1.76562 32.996H25.8411C26.2095 32.996 26.5698 32.9239 26.9021 32.7798C28.808 31.967 30.0372 30.1051 30.0372 28.0391C30.0372 27.5346 29.9651 27.0382 29.821 26.5577C30.4937 25.6688 30.866 24.5798 30.866 23.4467C30.866 22.9422 30.7939 22.4457 30.6498 21.9652C31.3225 21.0763 31.6948 19.9873 31.6948 18.8542C31.6868 18.3497 31.6147 17.8492 31.4706 17.3687ZM3.36719 30.1132V18.7421H6.61035V30.1132H3.36719ZM28.848 15.9794L27.9712 16.7401L28.5277 17.7571C28.7111 18.0921 28.8062 18.4683 28.804 18.8502C28.804 19.5108 28.5157 20.1394 28.0192 20.5718L27.1424 21.3326L27.6989 22.3496C27.8823 22.6846 27.9774 23.0608 27.9752 23.4426C27.9752 24.1033 27.6869 24.7319 27.1904 25.1643L26.3136 25.9251L26.8701 26.9421C27.0535 27.2771 27.1485 27.6532 27.1464 28.0351C27.1464 28.932 26.6179 29.7408 25.8011 30.1092H9.17285V18.6139L13.1567 4.17986C13.2595 3.8099 13.48 3.48351 13.7849 3.25014C14.0898 3.01677 14.4624 2.88915 14.8464 2.8866C15.1507 2.8866 15.451 2.97469 15.6912 3.15486C16.0876 3.45115 16.2998 3.89959 16.2758 4.37605L15.8914 12.3198H28.4797C29.1924 12.7562 29.6328 13.4929 29.6328 14.2577C29.6328 14.9183 29.3445 15.5429 28.848 15.9794Z" fill="black"/>
</svg>
