<svg width="43" height="42" viewBox="0 0 43 42" fill="none" xmlns="http://www.w3.org/2000/svg">
<g clip-path="url(#clip0_949_8106)">
<path d="M38.6997 25.1997H21.4998V27.2997H38.6997V25.1997Z" fill="black"/>
<path d="M38.6997 29.3997H21.4998V31.4996H38.6997V29.3997Z" fill="black"/>
<path d="M38.6997 33.5996H21.4998V35.6996H38.6997V33.5996Z" fill="black"/>
<path d="M42.6849 0.307859C42.2649 -0.102294 41.5848 -0.102294 41.1649 0.307859C36.3597 5.00625 32.5248 3.75536 28.0909 2.31121C24.2302 1.05401 19.8528 -0.367007 14.5689 2.2104C14.0378 2.47076 13.8221 3.1001 14.088 3.61952C14.3546 4.13615 14.9981 4.34959 15.5307 4.08923C20.0205 1.89688 23.6089 3.06581 27.4101 4.30481C29.5938 5.01462 31.8111 5.73632 34.1396 5.73632C36.8063 5.73632 39.6163 4.78854 42.685 1.79253C43.1049 1.38238 43.1049 0.718013 42.6849 0.307859Z" fill="black"/>
<path d="M42.7838 5.67058C42.4269 5.20645 41.7526 5.11055 41.2803 5.45918C35.7225 9.53176 31.7408 7.92035 28.2284 6.49868C26.6396 5.85679 25.1396 5.24992 23.6497 5.24992C23.0556 5.24992 22.5747 5.71963 22.5747 6.29992C22.5747 6.8802 23.0556 7.34991 23.6497 7.34991C24.7111 7.34991 25.9595 7.85465 27.405 8.43912C29.3264 9.21824 31.6219 10.1457 34.323 10.1457C36.7395 10.1457 39.4815 9.40298 42.5689 7.14131C43.0447 6.79268 43.1408 6.13463 42.7838 5.67058Z" fill="black"/>
<path d="M42.1066 17.1968C41.7361 16.9357 41.2953 16.8 40.8496 16.8C40.621 16.8 40.3917 16.8357 40.1702 16.9078L30.0997 20.1865V18.9C30.0997 18.2252 29.7672 17.591 29.2067 17.1962C28.8361 16.9358 28.3954 16.8 27.9496 16.8C27.721 16.8 27.4916 16.8357 27.2702 16.9078L17.9916 19.929L17.1953 8.26075C17.1194 7.1576 16.182 6.30005 15.0496 6.30005H10.7496C9.61803 6.30005 8.67993 7.15752 8.60468 8.26001L6.44546 39.8998H2.14985L4.29983 12.5999H6.15311L6.29647 10.4999H4.29983C3.17613 10.4999 2.24231 11.3449 2.15631 12.4389L0.00632625 39.7387C-0.039529 40.3218 0.165392 40.8973 0.572462 41.3264C0.979531 41.7562 1.55071 41.9997 2.14985 41.9997H40.8496C42.0372 41.9997 42.9996 41.0597 42.9996 39.8998V18.8999C42.9996 18.2251 42.667 17.5909 42.1066 17.1968ZM8.59981 39.8998L10.7498 8.39995H15.0498L17.1998 39.8998H8.59981ZM40.8496 39.8998H19.3548L18.1394 22.094L27.9498 18.8999V23.0999L40.8497 18.8999V39.8998H40.8496Z" fill="black"/>
</g>
<defs>
<clipPath id="clip0_949_8106">
<rect width="43" height="42" fill="white"/>
</clipPath>
</defs>
</svg>
