<svg width="36" height="36" viewBox="0 0 36 36" fill="none" xmlns="http://www.w3.org/2000/svg">
<rect x="0.5" y="0.5" width="35" height="35" rx="6.5" stroke="#BDBDBD"/>
<path d="M26.1599 11.1783C25.6884 10.7066 25.1286 10.3324 24.5125 10.0771C23.8964 9.82183 23.236 9.69043 22.5691 9.69043C21.9022 9.69043 21.2418 9.82183 20.6257 10.0771C20.0096 10.3324 19.4498 10.7066 18.9783 11.1783L17.9999 12.1567L17.0214 11.1783C16.0691 10.2259 14.7775 9.69092 13.4307 9.69092C12.0839 9.69092 10.7922 10.2259 9.83988 11.1783C8.88755 12.1306 8.35254 13.4222 8.35254 14.769C8.35254 16.1158 8.88755 17.4075 9.83988 18.3598L10.8183 19.3383L17.9999 26.5198L25.1814 19.3383L26.1599 18.3598C26.6316 17.8883 27.0057 17.3286 27.261 16.7124C27.5163 16.0963 27.6477 15.4359 27.6477 14.769C27.6477 14.1021 27.5163 13.4417 27.261 12.8256C27.0057 12.2095 26.6316 11.6497 26.1599 11.1783V11.1783Z" stroke="#3B8992" stroke-width="2" stroke-linecap="round" stroke-linejoin="round"/>
</svg>
