<svg width="37" height="31" viewBox="0 0 37 31" fill="none" xmlns="http://www.w3.org/2000/svg">
<path d="M31.3124 30.1429H5.6874C3.14974 30.1429 1.076 28.1567 0.936 25.654L0.928467 25.384V4.15182C0.928467 2.40806 2.28317 0.980698 3.99754 0.864779L4.22311 0.857178H26.9195C28.6633 0.857178 30.0907 2.21188 30.2066 3.92625L30.2142 4.15182V5.25003H32.7767C34.5205 5.25003 35.9478 6.60474 36.0637 8.31911L36.0713 8.54468V25.384C36.0713 27.9216 34.0851 29.9954 31.5824 30.1354L31.3124 30.1429H5.6874H31.3124ZM5.6874 27.9465H31.3124C32.6569 27.9465 33.7595 26.9111 33.8664 25.5941L33.8749 25.384V8.54468C33.8749 7.98869 33.4617 7.52921 32.9257 7.45649L32.7767 7.44646H30.2142V23.1875C30.2142 23.7435 29.801 24.203 29.265 24.2757L29.116 24.2857C28.56 24.2857 28.1005 23.8726 28.0278 23.3366L28.0178 23.1875V4.15182C28.0178 3.59584 27.6046 3.13635 27.0686 3.06363L26.9195 3.05361H4.22311C3.66713 3.05361 3.20764 3.46676 3.13492 4.0028L3.1249 4.15182V25.384C3.1249 26.7284 4.16031 27.8311 5.47723 27.938L5.6874 27.9465H31.3124H5.6874ZM13.0037 14.0408C14.0146 14.0408 14.8341 14.8603 14.8341 15.8712V20.9911C14.8341 22.002 14.0146 22.8215 13.0037 22.8215H7.88382C6.87295 22.8215 6.05347 22.002 6.05347 20.9911V15.8712C6.05347 14.8603 6.87295 14.0408 7.88382 14.0408H13.0037ZM18.866 20.625H23.9854C24.5919 20.625 25.0836 21.1167 25.0836 21.7232C25.0836 22.2792 24.6704 22.7387 24.1344 22.8114L23.9854 22.8215H18.866C18.2594 22.8215 17.7678 22.3298 17.7678 21.7232C17.7678 21.1673 18.1809 20.7078 18.7169 20.6351L18.866 20.625H23.9854H18.866ZM12.6377 16.2373H8.2499V20.625H12.6377V16.2373ZM18.866 14.0408H23.9854C24.5919 14.0408 25.0836 14.5325 25.0836 15.139C25.0836 15.695 24.6704 16.1545 24.1344 16.2272L23.9854 16.2373H18.866C18.2594 16.2373 17.7678 15.7456 17.7678 15.139C17.7678 14.5831 18.1809 14.1236 18.7169 14.0509L18.866 14.0408H23.9854H18.866ZM7.1464 7.44157H23.9854C24.5919 7.44157 25.0836 7.93326 25.0836 8.53978C25.0836 9.09577 24.6704 9.55525 24.1344 9.62797L23.9854 9.638H7.1464C6.53988 9.638 6.04819 9.14631 6.04819 8.53978C6.04819 7.9838 6.46134 7.52431 6.99738 7.45159L7.1464 7.44157H23.9854H7.1464Z" fill="black"/>
</svg>
