<svg width="66" height="65" viewBox="0 0 66 65" fill="none" xmlns="http://www.w3.org/2000/svg">
<path d="M48.0611 29.2499C57.6923 29.2499 65.5 37.2528 65.5 47.1248C65.5 56.9969 57.6923 64.9998 48.0611 64.9998C38.4298 64.9998 30.6221 56.9969 30.6221 47.1248C30.6221 37.2528 38.4298 29.2499 48.0611 29.2499ZM48.8537 0C54.3487 0 58.8391 4.40846 59.1423 9.96309L59.1586 10.5625L59.1608 29.3222C55.9569 27.2192 52.1479 25.9999 48.0611 25.9999C42.2112 25.9999 36.9307 28.498 33.1793 32.5103L20.3102 32.5098L19.9875 32.5321C18.8268 32.6935 17.9322 33.7133 17.9322 34.9473C17.9322 36.1813 18.8268 37.2011 19.9875 37.3625L20.3102 37.3848L29.7682 37.3843C28.288 40.2989 27.4514 43.6117 27.4514 47.1248C27.4514 51.3146 28.6414 55.2195 30.6938 58.5037L12.3905 58.4998C6.89556 58.4998 2.40514 54.0913 2.10199 48.5367L2.08568 47.9373L2.08477 20.7092C2.82883 20.9788 3.62955 21.1256 4.46372 21.1256C8.40396 21.1256 11.5982 17.8515 11.5982 13.8128C11.5982 9.77403 8.40396 6.49998 4.46372 6.49998C3.8891 6.49998 3.33035 6.56961 2.79505 6.70109C4.2283 2.96449 7.67869 0.267137 11.7719 0.0187198L12.3905 0H48.8537ZM51.2318 55.2547H44.8903L44.9117 55.6337C45.0948 57.2501 46.435 58.5047 48.0611 58.5047C49.8122 58.5047 51.2318 57.0496 51.2318 55.2547ZM48.0718 35.7499L47.5411 35.773C44.5708 36.0502 42.248 38.257 41.8057 41.0854L41.7474 41.5907L41.7295 42.2528V46.4541L39.0148 49.2291C38.0807 50.184 38.6342 51.7743 39.8613 51.9821L40.1343 52.0047H55.9879C57.3061 52.0047 58.0101 50.48 57.2862 49.4444L57.1089 49.2307L54.4181 46.4727V42.0773L54.4007 41.6023C54.1577 38.3103 51.4088 35.7499 48.0718 35.7499ZM40.9341 21.1127H20.3102L19.9875 21.1349C18.8268 21.2963 17.9322 22.3162 17.9322 23.5502C17.9322 24.7842 18.8268 25.804 19.9875 25.9654L20.3102 25.9877H40.9341L41.2567 25.9654C42.4175 25.804 43.3121 24.7842 43.3121 23.5502C43.3121 22.204 42.2474 21.1127 40.9341 21.1127ZM4.46372 9.74997C6.65282 9.74997 8.42743 11.569 8.42743 13.8128C8.42743 16.0566 6.65282 17.8756 4.46372 17.8756C2.27462 17.8756 0.5 16.0566 0.5 13.8128C0.5 11.569 2.27462 9.74997 4.46372 9.74997Z" fill="#828282"/>
</svg>
