<svg width="23" height="23" viewBox="0 0 23 23" fill="none" xmlns="http://www.w3.org/2000/svg">
<path d="M23 3.83332C23 1.71611 21.2839 0 19.1667 0C17.7479 0 16.5102 0.771174 15.8474 1.91668H3.83332C1.71611 1.91668 0 3.63279 0 5.75V19.1667C0 21.2839 1.71611 23 3.83332 23H17.25C19.3672 23 21.0833 21.2839 21.0833 19.1667V7.15264C22.2288 6.48977 23 5.25209 23 3.83332ZM19.1667 19.1667C19.1667 20.2254 18.3087 21.0834 17.25 21.0834H3.83332C2.77464 21.0834 1.91664 20.2254 1.91664 19.1667V5.75C1.91664 4.69133 2.7746 3.83332 3.83332 3.83332H15.3333C15.3333 5.95053 17.0494 7.66664 19.1666 7.66664V19.1667H19.1667ZM19.922 5.5952C19.8824 5.60391 19.8426 5.61523 19.803 5.62934C19.6057 5.69973 19.4216 5.73917 19.2436 5.74802C19.2181 5.74906 19.1925 5.74996 19.1667 5.74996C18.108 5.75 17.25 4.89204 17.25 3.83332C17.25 3.80749 17.2509 3.78193 17.2519 3.75637C17.2608 3.57839 17.3002 3.39434 17.3706 3.19695C17.3847 3.15733 17.396 3.11762 17.4048 3.07796C17.698 2.39501 18.3763 1.91668 19.1667 1.91668C20.2254 1.91668 21.0834 2.77464 21.0834 3.83336C21.0833 4.62372 20.605 5.30208 19.922 5.5952Z" fill="#3B8992"/>
</svg>
