<svg width="36" height="36" viewBox="0 0 36 36" fill="none" xmlns="http://www.w3.org/2000/svg">
<rect x="0.5" y="0.5" width="35" height="35" rx="6.5" stroke="#BDBDBD"/>
<path d="M23.5385 14.3077C23.5385 12.8389 22.955 11.4301 21.9164 10.3915C20.8777 9.3528 19.469 8.76929 18.0001 8.76929C16.5312 8.76929 15.1225 9.3528 14.0838 10.3915C13.0451 11.4301 12.4616 12.8389 12.4616 14.3077C12.4616 20.7693 9.69238 22.6154 9.69238 22.6154H26.3078C26.3078 22.6154 23.5385 20.7693 23.5385 14.3077Z" stroke="#3B8992" stroke-width="2" stroke-linecap="round" stroke-linejoin="round"/>
<path d="M19.5969 26.3076C19.4346 26.5874 19.2017 26.8196 18.9214 26.981C18.6412 27.1425 18.3234 27.2274 18 27.2274C17.6766 27.2274 17.3588 27.1425 17.0786 26.981C16.7983 26.8196 16.5654 26.5874 16.4031 26.3076" stroke="#3B8992" stroke-width="2" stroke-linecap="round" stroke-linejoin="round"/>
</svg>
