<svg width="24" height="24" viewBox="0 0 24 24" fill="none" xmlns="http://www.w3.org/2000/svg">
<path d="M22.8335 17.3299V20.5799C22.8348 20.8817 22.773 21.1803 22.6521 21.4567C22.5312 21.7332 22.354 21.9813 22.1316 22.1853C21.9093 22.3893 21.6468 22.5446 21.361 22.6412C21.0752 22.7379 20.7724 22.7738 20.4719 22.7466C17.1383 22.3844 13.9361 21.2453 11.1227 19.4208C8.50519 17.7575 6.28599 15.5383 4.62271 12.9208C2.79186 10.0946 1.65248 6.87685 1.29688 3.52828C1.26981 3.2287 1.30541 2.92677 1.40142 2.6417C1.49743 2.35664 1.65175 2.09469 1.85454 1.87253C2.05734 1.65037 2.30417 1.47288 2.57932 1.35134C2.85447 1.2298 3.15191 1.16689 3.45271 1.16661H6.70271C7.22846 1.16143 7.73815 1.34761 8.13679 1.69044C8.53542 2.03326 8.7958 2.50934 8.86938 3.02994C9.00655 4.07001 9.26095 5.09123 9.62771 6.07411C9.77347 6.46186 9.80501 6.88327 9.71861 7.2884C9.63221 7.69353 9.43148 8.0654 9.14021 8.35994L7.76438 9.73578C9.30656 12.448 11.5522 14.6936 14.2644 16.2358L15.6402 14.8599C15.9348 14.5687 16.3066 14.3679 16.7118 14.2815C17.1169 14.1951 17.5383 14.2267 17.926 14.3724C18.9089 14.7392 19.9301 14.9936 20.9702 15.1308C21.4965 15.205 21.9771 15.4701 22.3206 15.8756C22.6642 16.281 22.8467 16.7986 22.8335 17.3299Z" stroke="#3B8992" stroke-width="2" stroke-linecap="round" stroke-linejoin="round"/>
</svg>
