<svg width="43" height="43" viewBox="0 0 43 43" fill="none" xmlns="http://www.w3.org/2000/svg">
<path d="M10.75 4.47909C10.75 3.98433 11.1511 3.58325 11.6458 3.58325C12.1406 3.58325 12.5417 3.98433 12.5417 4.47909V9.85408C12.5417 10.3489 12.1406 10.7499 11.6458 10.7499C11.1511 10.7499 10.75 10.3489 10.75 9.85408V4.47909Z" fill="black"/>
<path d="M25.0833 4.47909C25.0833 3.98433 25.4843 3.58325 25.9791 3.58325C26.4739 3.58325 26.8749 3.98433 26.8749 4.47909V9.85408C26.8749 10.3489 26.4739 10.7499 25.9791 10.7499C25.4843 10.7499 25.0833 10.3489 25.0833 9.85408V4.47909Z" fill="black"/>
<path fill-rule="evenodd" clip-rule="evenodd" d="M12.5416 20.6042H10.7499V22.3958H12.5416V20.6042ZM10.7499 18.8125C9.76038 18.8125 8.95825 19.6146 8.95825 20.6042V22.3958C8.95825 23.3854 9.76038 24.1875 10.7499 24.1875H12.5416C13.5311 24.1875 14.3333 23.3854 14.3333 22.3958V20.6042C14.3333 19.6146 13.5311 18.8125 12.5416 18.8125H10.7499Z" fill="black"/>
<path fill-rule="evenodd" clip-rule="evenodd" d="M19.7083 20.6042H17.9167V22.3958H19.7083V20.6042ZM17.9167 18.8125C16.9271 18.8125 16.125 19.6146 16.125 20.6042V22.3958C16.125 23.3854 16.9271 24.1875 17.9167 24.1875H19.7083C20.6979 24.1875 21.5 23.3854 21.5 22.3958V20.6042C21.5 19.6146 20.6979 18.8125 19.7083 18.8125H17.9167Z" fill="black"/>
<path fill-rule="evenodd" clip-rule="evenodd" d="M26.8751 20.6042H25.0834V22.3958H26.8751V20.6042ZM25.0834 18.8125C24.0939 18.8125 23.2917 19.6146 23.2917 20.6042V22.3958C23.2917 23.3854 24.0939 24.1875 25.0834 24.1875H26.8751C27.8646 24.1875 28.6667 23.3854 28.6667 22.3958V20.6042C28.6667 19.6146 27.8646 18.8125 26.8751 18.8125H25.0834Z" fill="black"/>
<path fill-rule="evenodd" clip-rule="evenodd" d="M12.5416 27.7709H10.7499V29.5626H12.5416V27.7709ZM10.7499 25.9792C9.76038 25.9792 8.95825 26.7814 8.95825 27.7709V29.5626C8.95825 30.5521 9.76038 31.3542 10.7499 31.3542H12.5416C13.5311 31.3542 14.3333 30.5521 14.3333 29.5626V27.7709C14.3333 26.7814 13.5311 25.9792 12.5416 25.9792H10.7499Z" fill="black"/>
<path fill-rule="evenodd" clip-rule="evenodd" d="M19.7083 27.7709H17.9167V29.5626H19.7083V27.7709ZM17.9167 25.9792C16.9271 25.9792 16.125 26.7814 16.125 27.7709V29.5626C16.125 30.5521 16.9271 31.3542 17.9167 31.3542H19.7083C20.6979 31.3542 21.5 30.5521 21.5 29.5626V27.7709C21.5 26.7814 20.6979 25.9792 19.7083 25.9792H17.9167Z" fill="black"/>
<path fill-rule="evenodd" clip-rule="evenodd" d="M8.06258 8.95841H29.5626C30.5521 8.95841 31.3543 9.76054 31.3543 10.7501V25.0834C31.9729 25.0834 32.5733 25.1618 33.1459 25.3092V10.7501C33.1459 8.77106 31.5416 7.16675 29.5626 7.16675H8.06258C6.08356 7.16675 4.47925 8.77106 4.47925 10.7501V32.2501C4.47925 34.2291 6.08356 35.8334 8.06258 35.8334H25.1464C24.8256 35.2789 24.577 34.6773 24.4133 34.0417H8.06258C7.07307 34.0417 6.27091 33.2396 6.27091 32.2501V10.7501C6.27091 9.76054 7.07307 8.95841 8.06258 8.95841Z" fill="black"/>
<path fill-rule="evenodd" clip-rule="evenodd" d="M32.25 17.0209H5.375V15.2292H32.25V17.0209Z" fill="black"/>
<path fill-rule="evenodd" clip-rule="evenodd" d="M31.3542 37.6249C34.3227 37.6249 36.7292 35.2184 36.7292 32.2499C36.7292 29.2814 34.3227 26.8749 31.3542 26.8749C28.3856 26.8749 25.9792 29.2814 25.9792 32.2499C25.9792 35.2184 28.3856 37.6249 31.3542 37.6249ZM31.3542 39.4166C35.3122 39.4166 38.5208 36.208 38.5208 32.2499C38.5208 28.2919 35.3122 25.0833 31.3542 25.0833C27.3961 25.0833 24.1875 28.2919 24.1875 32.2499C24.1875 36.208 27.3961 39.4166 31.3542 39.4166Z" fill="black"/>
<path fill-rule="evenodd" clip-rule="evenodd" d="M31.3541 27.9309C31.8489 27.9309 32.2499 28.332 32.2499 28.8267V32.6771L34.4461 34.2016C34.8525 34.4837 34.9533 35.0419 34.6711 35.4483C34.389 35.8547 33.8308 35.9555 33.4244 35.6734L30.4583 33.6145V28.8267C30.4583 28.332 30.8593 27.9309 31.3541 27.9309Z" fill="black"/>
</svg>
