<svg width="36" height="36" viewBox="0 0 36 36" fill="none" xmlns="http://www.w3.org/2000/svg">
<rect x="0.5" y="0.5" width="35" height="35" rx="6.5" stroke="#BDBDBD"/>
<g clip-path="url(#clip0_1478_11166)">
<path d="M17.9997 20.7692C19.5291 20.7692 20.7689 19.5293 20.7689 17.9999C20.7689 16.4705 19.5291 15.2307 17.9997 15.2307C16.4703 15.2307 15.2305 16.4705 15.2305 17.9999C15.2305 19.5293 16.4703 20.7692 17.9997 20.7692Z" stroke="#3B8992" stroke-width="2" stroke-linecap="round" stroke-linejoin="round"/>
<path d="M24.8303 20.7693C24.7074 21.0477 24.6708 21.3565 24.7251 21.656C24.7794 21.9554 24.9221 22.2317 25.1349 22.4493L25.1903 22.5047C25.362 22.6761 25.4981 22.8797 25.591 23.1038C25.684 23.328 25.7318 23.5682 25.7318 23.8108C25.7318 24.0534 25.684 24.2937 25.591 24.5178C25.4981 24.7419 25.362 24.9455 25.1903 25.117C25.0189 25.2886 24.8153 25.4248 24.5911 25.5177C24.367 25.6106 24.1268 25.6584 23.8842 25.6584C23.6416 25.6584 23.4013 25.6106 23.1772 25.5177C22.9531 25.4248 22.7495 25.2886 22.578 25.117L22.5226 25.0616C22.3051 24.8488 22.0288 24.706 21.7293 24.6517C21.4299 24.5974 21.121 24.6341 20.8426 24.757C20.5696 24.874 20.3368 25.0683 20.1728 25.3159C20.0087 25.5636 19.9207 25.8538 19.9196 26.1508V26.3077C19.9196 26.7974 19.725 27.2669 19.3788 27.6132C19.0326 27.9594 18.563 28.1539 18.0734 28.1539C17.5838 28.1539 17.1142 27.9594 16.768 27.6132C16.4217 27.2669 16.2272 26.7974 16.2272 26.3077V26.2247C16.2201 25.9191 16.1212 25.6228 15.9434 25.3742C15.7656 25.1256 15.5172 24.9363 15.2303 24.8308C14.9519 24.7079 14.6431 24.6713 14.3436 24.7256C14.0442 24.7799 13.7679 24.9226 13.5503 25.1354L13.4949 25.1908C13.3235 25.3625 13.1199 25.4986 12.8957 25.5915C12.6716 25.6844 12.4314 25.7323 12.1888 25.7323C11.9462 25.7323 11.7059 25.6844 11.4818 25.5915C11.2577 25.4986 11.0541 25.3625 10.8826 25.1908C10.711 25.0194 10.5748 24.8157 10.4819 24.5916C10.389 24.3675 10.3412 24.1273 10.3412 23.8847C10.3412 23.642 10.389 23.4018 10.4819 23.1777C10.5748 22.9536 10.711 22.75 10.8826 22.5785L10.938 22.5231C11.1508 22.3056 11.2936 22.0293 11.3479 21.7298C11.4022 21.4304 11.3655 21.1215 11.2426 20.8431C11.1256 20.5701 10.9313 20.3373 10.6837 20.1732C10.436 20.0092 10.1458 19.9212 9.84878 19.92H9.69186C9.20223 19.92 8.73265 19.7255 8.38643 19.3793C8.04021 19.0331 7.8457 18.5635 7.8457 18.0739C7.8457 17.5843 8.04021 17.1147 8.38643 16.7685C8.73265 16.4222 9.20223 16.2277 9.69186 16.2277H9.77493C10.0805 16.2206 10.3768 16.1217 10.6254 15.9439C10.8739 15.7661 11.0633 15.5176 11.1688 15.2308C11.2917 14.9524 11.3283 14.6436 11.274 14.3441C11.2197 14.0447 11.077 13.7684 10.8642 13.5508L10.8088 13.4954C10.6371 13.324 10.501 13.1204 10.4081 12.8962C10.3151 12.6721 10.2673 12.4319 10.2673 12.1893C10.2673 11.9467 10.3151 11.7064 10.4081 11.4823C10.501 11.2582 10.6371 11.0546 10.8088 10.8831C10.9802 10.7115 11.1838 10.5753 11.408 10.4824C11.6321 10.3895 11.8723 10.3417 12.1149 10.3417C12.3575 10.3417 12.5978 10.3895 12.8219 10.4824C13.046 10.5753 13.2496 10.7115 13.4211 10.8831L13.4765 10.9385C13.694 11.1513 13.9703 11.2941 14.2698 11.3483C14.5692 11.4026 14.8781 11.366 15.1565 11.2431H15.2303C15.5033 11.1261 15.7362 10.9318 15.9002 10.6842C16.0642 10.4365 16.1522 10.1463 16.1534 9.84927V9.69235C16.1534 9.20271 16.3479 8.73314 16.6941 8.38692C17.0403 8.0407 17.5099 7.84619 17.9995 7.84619C18.4892 7.84619 18.9588 8.0407 19.305 8.38692C19.6512 8.73314 19.8457 9.20271 19.8457 9.69235V9.77542C19.8469 10.0725 19.9349 10.3627 20.0989 10.6103C20.2629 10.858 20.4958 11.0523 20.7688 11.1693C21.0472 11.2921 21.356 11.3288 21.6555 11.2745C21.9549 11.2202 22.2312 11.0775 22.4488 10.8647L22.5042 10.8093C22.6756 10.6376 22.8792 10.5014 23.1034 10.4085C23.3275 10.3156 23.5677 10.2678 23.8103 10.2678C24.0529 10.2678 24.2932 10.3156 24.5173 10.4085C24.7414 10.5014 24.945 10.6376 25.1165 10.8093C25.2881 10.9807 25.4243 11.1843 25.5172 11.4085C25.6101 11.6326 25.6579 11.8728 25.6579 12.1154C25.6579 12.358 25.6101 12.5983 25.5172 12.8224C25.4243 13.0465 25.2881 13.2501 25.1165 13.4216L25.0611 13.477C24.8483 13.6945 24.7055 13.9708 24.6512 14.2703C24.5969 14.5697 24.6336 14.8785 24.7565 15.157V15.2308C24.8735 15.5038 25.0678 15.7367 25.3154 15.9007C25.5631 16.0647 25.8533 16.1527 26.1503 16.1539H26.3072C26.7969 16.1539 27.2664 16.3484 27.6127 16.6946C27.9589 17.0408 28.1534 17.5104 28.1534 18C28.1534 18.4897 27.9589 18.9592 27.6127 19.3055C27.2664 19.6517 26.7969 19.8462 26.3072 19.8462H26.2242C25.9271 19.8474 25.6369 19.9354 25.3893 20.0994C25.1416 20.2634 24.9473 20.4963 24.8303 20.7693V20.7693Z" stroke="#3B8992" stroke-width="2" stroke-linecap="round" stroke-linejoin="round"/>
</g>
<defs>
<clipPath id="clip0_1478_11166">
<rect width="22.1538" height="22.1538" fill="white" transform="translate(6.92285 6.9231)"/>
</clipPath>
</defs>
</svg>
