<svg width="41" height="41" viewBox="0 0 41 41" fill="none" xmlns="http://www.w3.org/2000/svg">
<path d="M38.9762 32.2353C39.2714 31.8082 39.4449 31.2909 39.4449 30.7336V28.3639C39.4449 26.904 38.2572 25.7163 36.7973 25.7163H35.8833C34.3033 25.7163 33.0178 27.0018 33.0178 28.5818V30.5156C33.0178 31.1413 33.2199 31.7205 33.5616 32.1922C33.069 32.4597 32.6392 32.8281 32.2985 33.2688C31.9753 32.8509 31.5714 32.4987 31.1104 32.2352C31.4056 31.8082 31.579 31.2909 31.579 30.7335V28.3638C31.579 26.9039 30.3913 25.7162 28.9314 25.7162H28.0177C27.6887 25.7162 27.3727 25.7727 27.0782 25.8752V22.6188H29.1673C29.6287 22.6188 30.003 22.2447 30.003 21.7832V17.6049C30.003 17.1434 29.6287 16.7693 29.1673 16.7693H27.9974V13.1411C27.9974 10.6293 26.0767 8.79979 23.2179 8.45754C23.6271 7.81619 23.8609 7.01741 23.8609 6.12166V4.65935C23.8609 2.37152 22.3409 0.710938 20.2467 0.710938H19.7035C17.6093 0.710938 16.0894 2.37152 16.0894 4.65935V6.12174C16.0894 7.01749 16.3232 7.81627 16.7324 8.45761C13.8736 8.79979 11.9529 10.6293 11.9529 13.1412V16.7694H10.7829C10.3214 16.7694 9.9473 17.1435 9.9473 17.605V21.7833C9.9473 22.2448 10.3215 22.6189 10.7829 22.6189H12.8721V25.7163H12.2862C10.7062 25.7163 9.42071 27.0018 9.42071 28.5818V30.5156C9.42071 31.1413 9.62283 31.7205 9.96452 32.1922C9.47188 32.4597 9.0421 32.8281 8.70137 33.2688C8.37817 32.8509 7.97434 32.4987 7.51325 32.2352C7.8085 31.8082 7.98195 31.2909 7.98195 30.7335V28.3638C7.98195 26.9039 6.79423 25.7162 5.33432 25.7162H4.42055C2.84053 25.7162 1.55504 27.0017 1.55504 28.5817V30.5155C1.55504 31.1413 1.75715 31.7204 2.09885 32.1921C0.849869 32.8704 0 34.1938 0 35.7123V39.4533C0 39.9148 0.374205 40.2889 0.835615 40.2889H8.70137H16.5671H24.4329H32.2986H40.1644C40.6258 40.2889 41 39.9148 41 39.4533V35.7123C41 34.2248 40.1838 32.9252 38.9762 32.2353ZM3.22627 28.5819C3.22627 27.9234 3.76199 27.3877 4.42047 27.3877H5.3344C5.87261 27.3877 6.31072 27.8256 6.31072 28.364V30.7337C6.31072 31.2719 5.87277 31.7099 5.3344 31.7099H4.42055C3.76207 31.7099 3.22635 31.1742 3.22635 30.5157V28.5819H3.22627ZM7.86583 38.6177H1.67131V35.7123C1.67131 34.4269 2.71705 33.3811 4.00246 33.3811H5.53468C6.82009 33.3811 7.86583 34.4269 7.86583 35.7123V38.6177ZM28.0177 27.3877H28.9317C29.4699 27.3877 29.908 27.8256 29.908 28.364V30.7337C29.908 31.2719 29.47 31.7099 28.9317 31.7099H28.0177C27.3593 31.7099 26.8235 31.1742 26.8235 30.5157V28.5819C26.8235 27.9234 27.3593 27.3877 28.0177 27.3877ZM17.7607 4.65935C17.7607 3.52584 18.3614 2.38217 19.7035 2.38217H20.2467C21.5888 2.38217 22.1896 3.52584 22.1896 4.65935V6.12174C22.1896 7.25524 21.5888 8.39892 20.2467 8.39892H19.7035C18.3614 8.39892 17.7607 7.25524 17.7607 6.12174V4.65935ZM21.1212 10.0702L19.9752 11.8705L18.8292 10.0702H21.1212ZM13.6243 13.1412C13.6243 11.3123 15.1543 10.3551 16.8834 10.1256L19.2702 13.8755C19.4236 14.1165 19.6894 14.2624 19.9752 14.2624C20.2609 14.2624 20.5267 14.1165 20.6801 13.8755L23.067 10.1256C24.796 10.3551 26.3261 11.3122 26.3261 13.1412V16.7694H24.8637V14.6245C24.8637 14.163 24.4895 13.7889 24.0281 13.7889C23.5667 13.7889 23.1925 14.163 23.1925 14.6245V16.7694H16.7579V14.6245C16.7579 14.163 16.3837 13.7889 15.9223 13.7889C15.4609 13.7889 15.0867 14.163 15.0867 14.6245V16.7694H13.6243V13.1412H13.6243ZM11.6186 20.9476V18.4407H28.3316V20.9476H11.6186ZM11.092 28.5819C11.092 27.9234 11.6277 27.3877 12.2862 27.3877H13.2002C13.7384 27.3877 14.1765 27.8256 14.1765 28.364V30.7337C14.1765 31.2719 13.7385 31.7099 13.2002 31.7099H12.2862C11.6277 31.7099 11.092 31.1742 11.092 30.5157V28.5819ZM15.7316 38.6177H9.53714V35.7123H9.53706C9.53706 34.4269 10.5828 33.3811 11.8682 33.3811H13.4004C14.6858 33.3811 15.7316 34.4269 15.7316 35.7123V38.6177ZM23.5973 38.6177H17.4028V35.7123H17.4027C17.4027 34.4269 18.4485 33.3811 19.7339 33.3811H21.2661C22.5515 33.3811 23.5973 34.4269 23.5973 35.7123V38.6177ZM18.9578 30.5157V28.5819C18.9578 27.9234 19.4935 27.3877 20.152 27.3877H21.0659C21.6041 27.3877 22.0422 27.8256 22.0422 28.364V30.7337C22.0422 31.2719 21.6043 31.7099 21.0659 31.7099H20.152C19.4935 31.7098 18.9578 31.1741 18.9578 30.5157ZM24.4329 33.2688C24.1097 32.8509 23.7058 32.4987 23.2448 32.2352C23.54 31.8082 23.7135 31.2909 23.7135 30.7335V28.3638C23.7135 26.9039 22.5257 25.7162 21.0658 25.7162H20.1519C18.5719 25.7162 17.2864 27.0017 17.2864 28.5817V30.5155C17.2864 31.1413 17.4885 31.7204 17.8302 32.1921C17.3376 32.4596 16.9078 32.828 16.567 33.2687C16.2438 32.8508 15.84 32.4986 15.3789 32.2351C15.6742 31.8081 15.8476 31.2908 15.8476 30.7334V28.3638C15.8476 27.394 15.3232 26.5448 14.5433 26.0836V22.6187H25.4069V27.403C25.2437 27.7628 25.1521 28.1616 25.1521 28.5816V30.5155C25.1521 31.1412 25.3543 31.7203 25.6959 32.1921C25.2034 32.4598 24.7736 32.8282 24.4329 33.2688ZM31.463 38.6177H25.2686V35.7123H25.2685C25.2685 34.4269 26.3142 33.3811 27.5996 33.3811H29.1319C30.4173 33.3811 31.463 34.4269 31.463 35.7123V38.6177ZM34.6892 28.5819C34.6892 27.9234 35.2249 27.3877 35.8834 27.3877H36.7973C37.3355 27.3877 37.7737 27.8256 37.7737 28.364V30.7337C37.7737 31.2719 37.3357 31.7099 36.7973 31.7099H35.8834C35.2249 31.7099 34.6892 31.1742 34.6892 30.5157V28.5819ZM39.3288 38.6177H39.3287H33.1342V35.7123C33.1342 34.4269 34.18 33.3811 35.4654 33.3811H36.9976C38.283 33.3811 39.3288 34.4269 39.3288 35.7123V38.6177Z" fill="black"/>
</svg>
