<svg width="20" height="14" viewBox="0 0 20 14" fill="none" xmlns="http://www.w3.org/2000/svg">
<path d="M0.291543 4.13014L4.28731 0.551188C4.64758 0.228508 5.21473 0.203402 5.60719 0.476069L5.70144 0.550439L9.70668 4.12939C10.0975 4.47857 10.0979 5.04509 9.7076 5.39474C9.34736 5.71748 8.78014 5.74263 8.38765 5.46994L8.29339 5.39556L6.00002 3.34611L6.00003 12.8157C6.00003 13.2746 5.61399 13.6527 5.11666 13.7044L5.00003 13.7104C4.4872 13.7104 4.06453 13.365 4.00676 12.9201L4.00003 12.8157L4.00002 3.33984L1.7065 5.39481C1.34621 5.71752 0.778995 5.7426 0.386542 5.46987L0.292291 5.39548C-0.0683839 5.07312 -0.0964133 4.56561 0.208404 4.21447L0.291543 4.13014L4.28731 0.551188L0.291543 4.13014ZM14.8834 0.297688L15 0.291669C15.5129 0.291669 15.9355 0.637074 15.9933 1.08206L16 1.18641L16 10.6561L18.2926 8.60378C18.6529 8.28109 19.2201 8.25604 19.6126 8.52879L19.7068 8.60319C20.0675 8.92557 20.0955 9.43308 19.7906 9.78421L19.7075 9.86854L15.7112 13.4475C15.3509 13.7702 14.7837 13.7952 14.3913 13.5225L14.297 13.4481L10.2933 9.86913C9.90255 9.51988 9.90225 8.95336 10.2926 8.60378C10.6529 8.28109 11.2201 8.25604 11.6126 8.5288L11.7068 8.60319L14 10.6525L14 1.18641C14 0.727552 14.3861 0.349373 14.8834 0.297688L15 0.291669L14.8834 0.297688Z" fill="white"/>
</svg>
