<svg width="22" height="20" viewBox="0 0 22 20" fill="none" xmlns="http://www.w3.org/2000/svg">
<path d="M6.28551 13.7715C5.16341 14.6529 3.87548 15.2995 2.49836 15.6729C2.34668 15.728 2.21563 15.8284 2.12301 15.9605C2.0304 16.0927 1.98071 16.2501 1.98071 16.4115C1.98071 16.5729 2.0304 16.7303 2.12301 16.8625C2.21563 16.9946 2.34668 17.095 2.49836 17.1501C13.3726 21.6129 20.2869 14.7144 19.2341 7.0615L20.9941 3.41578H18.9512C16.4055 0.288641 9.64836 0.445784 10.7641 7.10864C10.7641 7.10864 7.14979 7.75293 2.52979 3.2115C2.42292 3.10599 2.28805 3.03332 2.14116 3.00209C1.99426 2.97086 1.84149 2.98238 1.70094 3.03529C1.5604 3.08821 1.43795 3.18029 1.34812 3.30064C1.25829 3.42099 1.20483 3.56456 1.19408 3.71436C0.70557 5.7224 0.950041 7.83889 1.88347 9.68269C2.81689 11.5265 4.37794 12.9765 6.28551 13.7715V13.7715Z" stroke="#FEFEFE" stroke-width="1.71429" stroke-linecap="round" stroke-linejoin="round"/>
</svg>
